<?xml version="1.0" standalone="no"?>
<!DOCTYPE svg PUBLIC "-//W3C//DTD SVG 1.1//EN" "http://www.w3.org/Graphics/SVG/1.1/DTD/svg11.dtd" >
<svg xmlns="http://www.w3.org/2000/svg">
<metadata></metadata>
<defs>
<font id="fs_albert_lightitalic" horiz-adv-x="1105" >
<font-face units-per-em="2048" ascent="1577" descent="-471" />
<missing-glyph horiz-adv-x="466" />
<glyph unicode="&#xfb01;" horiz-adv-x="976" d="M4 -383l223 1282h-121q-14 0 -17.5 6.5t-0.5 22.5l6 37q3 24 29 24h121l8 45q16 86 27.5 134t39.5 108.5t68 101.5q97 97 248 97q93 0 164 -29q17 -8 8 -31l-14 -47q-6 -21 -45 -10q-53 16 -111 16q-108 0 -165.5 -72.5t-82.5 -211.5l-18 -101h254q13 0 17.5 -5t2.5 -17 l-8 -47q-3 -21 -27 -21h-254l-227 -1292q-7 -31 -31 -31h-75q-27 0 -19 41zM586 41l164 922q6 26 30 26h74q18 0 21.5 -11.5t-1.5 -25.5l-161 -923q-6 -29 -31 -29h-74q-29 0 -22 41zM780 1233q0 37 29.5 63.5t67.5 26.5q29 0 48 -16.5t19 -44.5q0 -38 -29.5 -65.5 t-66.5 -27.5q-29 0 -48.5 17.5t-19.5 46.5z" />
<glyph unicode="&#xfb02;" horiz-adv-x="1034" d="M4 -383l223 1282h-121q-14 0 -17.5 6.5t-0.5 22.5l6 37q3 24 29 24h121l8 45q16 86 27.5 134t39.5 108.5t68 101.5q97 97 248 97q93 0 164 -29q17 -8 8 -31l-14 -47q-6 -21 -45 -10q-53 16 -111 16q-108 0 -165.5 -72.5t-82.5 -211.5l-18 -101h254q13 0 17.5 -5t2.5 -17 l-8 -47q-3 -21 -27 -21h-254l-227 -1292q-7 -31 -31 -31h-75q-27 0 -19 41zM649 18q0 3 1 10.5t1 10.5l242 1374q3 16 9.5 22.5t19.5 8.5q82 10 86 10q19 0 14 -33l-246 -1390q-3 -18 -9 -24.5t-19 -6.5h-76q-23 0 -23 18z" />
<glyph horiz-adv-x="1024" />
<glyph horiz-adv-x="1024" />
<glyph horiz-adv-x="682" />
<glyph unicode="&#xd;" horiz-adv-x="1024" />
<glyph unicode=" "  horiz-adv-x="466" />
<glyph unicode="&#x09;" horiz-adv-x="466" />
<glyph unicode="&#xa0;" horiz-adv-x="466" />
<glyph unicode="!" horiz-adv-x="473" d="M41 51q0 44 33 74.5t76 30.5q33 0 54 -19.5t21 -52.5q0 -44 -31.5 -75.5t-74.5 -31.5q-33 0 -55.5 21t-22.5 53zM133 319v11l170 1059q3 22 25 22h92q18 0 18 -14v-8l-207 -1063q-3 -23 -24 -23h-57q-17 0 -17 16z" />
<glyph unicode="&#x22;" horiz-adv-x="628" d="M152 1083v7l53 321q3 13 7.5 18t14.5 5h74q18 0 18 -13q0 -1 -1 -3t-1 -3l-61 -321q-3 -23 -25 -23h-63q-16 0 -16 12zM412 1083v7l51 321q6 23 24 23h74q19 0 19 -13q0 -1 -1 -3t-1 -3l-62 -321q-2 -13 -6.5 -18t-15.5 -5h-66q-16 0 -16 12z" />
<glyph unicode="#" horiz-adv-x="1126" d="M-45 442l18 60q5 14 27 14h221l109 342h-221q-23 0 -15 19l23 63q5 12 22 12h228l139 439q6 20 24 20h82q21 0 15 -18l-144 -441h324l141 437q8 22 29 22h78q19 0 12 -18l-137 -441h221q22 0 16 -16l-22 -64q-5 -14 -23 -14h-227l-109 -342h224q19 0 14 -16l-20 -66 q-3 -12 -25 -12h-227l-129 -395q-8 -27 -35 -27h-66q-12 0 -17.5 8t-0.5 19l133 395h-330l-137 -402q-7 -20 -20 -20h-80q-11 0 -15.5 6.5t-1.5 16.5l131 399h-215q-21 0 -14 20zM342 516h324l110 342h-323z" />
<glyph unicode="$" d="M74 55q0 7 2 11l30 73q10 19 25 19q4 0 16 -4q54 -22 131.5 -38t118.5 -16h35l103 584l-136 84q-159 97 -159 260q0 42 4 62q25 145 145.5 237t276.5 105l30 170q5 22 25 22h33q18 0 18 -12v-8l-29 -170q147 -6 263 -60q14 -6 14 -18q0 -6 -2 -10l-33 -70q-7 -14 -20 -14 q-3 0 -21 6q-99 46 -221 53l-94 -533l78 -47q101 -61 156 -133.5t55 -171.5q0 -38 -5 -63q-24 -160 -141.5 -262.5t-284.5 -124.5l-28 -166q-3 -16 -9 -21.5t-20 -5.5h-29q-20 0 -20 14v7l29 166h-29q-148 0 -287 53q-20 9 -20 22zM383 1057q0 -63 31 -107t88 -82l57 -39 l88 490q-113 -14 -188.5 -84t-75.5 -178zM508 109q104 20 177.5 83.5t90.5 161.5q4 32 4 49q0 124 -135 213l-41 27z" />
<glyph unicode="%" horiz-adv-x="1882" d="M305 35q0 12 10 22l1174 1366q10 13 22 13t21 -9l33 -26q10 -10 10 -21q0 -10 -8 -18l-1180 -1370q-7 -10 -18 -10q-10 0 -23 10l-33 26q-8 5 -8 17zM418 1036q0 68 19.5 136.5t55.5 128t95.5 96.5t132.5 37q95 0 139.5 -58t44.5 -155q0 -68 -18 -136t-52.5 -127.5 t-93 -97t-131.5 -37.5q-96 0 -144 57.5t-48 155.5zM518 1034q0 -131 109 -131q47 0 84 32.5t56.5 82.5t29.5 99.5t10 92.5q0 142 -102 142q-49 0 -87.5 -33.5t-59 -84.5t-30.5 -102.5t-10 -97.5zM979 193q0 68 19.5 136.5t55.5 127.5t95.5 96t132.5 37q95 0 139.5 -58 t44.5 -155q0 -54 -11 -108.5t-34.5 -106.5t-57.5 -92.5t-83.5 -65t-108.5 -24.5q-96 0 -144 57.5t-48 155.5zM1079 193q0 -60 26 -97t83 -37q47 0 84 33t56.5 83t29.5 99.5t10 92.5q0 143 -102 143q-40 0 -72.5 -22.5t-53.5 -57t-35 -78t-20 -83.5t-6 -76z" />
<glyph unicode="&#x26;" horiz-adv-x="1339" d="M39 297q0 70 24 134t58 111t90 96.5t101 81.5t109 75l12 7.5t10.5 7t11.5 7.5l-58 96q-65 110 -65 195q0 135 106.5 230.5t243.5 95.5q111 0 180.5 -59.5t69.5 -160.5q0 -53 -20.5 -105t-49.5 -91t-76 -81t-82.5 -68t-87.5 -60l297 -465q74 80 148.5 219t107.5 264 q4 17 9.5 22t19.5 5h62q16 0 16 -12q0 -62 -73.5 -225t-131.5 -236q-78 -97 -100 -119q101 -129 241 -178q13 -3 13 -16q0 -5 -4 -13l-31 -57q-10 -16 -25 -16q-44 0 -123 45q-100 53 -168 149q-96 -90 -224.5 -143t-264.5 -53q-148 0 -247 87t-99 230zM174 324 q0 -106 72.5 -171t175.5 -65q204 0 393 164l-311 487q-64 -41 -113 -78.5t-103 -91t-84 -116.5t-30 -129zM463 1135q0 -79 61 -177l43 -71q49 32 83.5 59.5t77 68.5t65 88t22.5 95q0 64 -39 102.5t-106 38.5q-83 0 -145 -61t-62 -143z" />
<glyph unicode="'" horiz-adv-x="628" d="M313 1085v11l52 315q6 23 24 23h74q16 0 16 -13q0 -6 -2 -10l-61 -317q-3 -23 -23 -23h-63q-17 0 -17 14z" />
<glyph unicode="(" horiz-adv-x="645" d="M113 377q0 549 460 1069q13 16 25 16q4 0 6 -2l47 -30q4 -2 4 -11t-6 -18q-194 -232 -305 -492.5t-111 -537.5q0 -291 138 -561q2 -4 2 -13q0 -11 -15 -20l-45 -27q-9 -6 -16 -6q-12 0 -18 12q-166 311 -166 621z" />
<glyph unicode=")" horiz-adv-x="645" d="M-8 -211q0 10 6 16q194 232 305 493t111 538q0 294 -138 561q-2 4 -2 12q0 15 15 21l45 26q9 6 16 6q13 0 19 -12q166 -308 166 -621q0 -548 -461 -1069q-16 -16 -25 -16q-1 0 -3 1t-3 1l-47 31q-4 4 -4 12z" />
<glyph unicode="*" horiz-adv-x="653" d="M68 1208q0 7 2 11l32 71q6 15 19 15q4 0 14 -5l178 -96l6 213q0 21 5 29t24 8h55q27 0 27 -16q0 -9 -2 -13l-72 -221l209 99q4 2 13 2q13 0 16 -19l8 -61v-8q0 -16 -27 -21l-210 -35l124 -170l5 -10q0 -13 -21 -23l-61 -34q-8 -4 -11 -4q-10 0 -16 20l-63 201l-132 -211 q-10 -17 -18 -17q-5 0 -12 7l-54 43q-10 10 -10 14q0 5 3 9t10 9.5t10 8.5l168 157l-197 29q-22 3 -22 18z" />
<glyph unicode="+" horiz-adv-x="1015" d="M102 500v8l11 55q3 15 9 21t21 6h326l63 366q5 31 33 31h56q26 0 26 -20v-9l-65 -368h317q27 0 27 -17v-8l-8 -53q-5 -31 -31 -31h-324l-65 -366q-5 -27 -31 -27h-61q-21 0 -21 16v11l64 366h-322q-25 0 -25 19z" />
<glyph unicode="," horiz-adv-x="403" d="M80 -217q0 8 12 16q36 30 68.5 77.5t32.5 84.5q0 26 -24 65.5t-24 61.5q0 44 30 72t71 28q37 0 63.5 -28t26.5 -70q0 -74 -53 -164q-56 -95 -156 -168q-13 -10 -23 -10q-7 0 -12 8l-10 17q-2 2 -2 10z" />
<glyph unicode="-" horiz-adv-x="557" d="M98 494v6l13 69q6 27 32 27h283q33 0 33 -21v-6l-10 -67q-3 -16 -11.5 -21.5t-25.5 -5.5h-287q-27 0 -27 19z" />
<glyph unicode="." horiz-adv-x="407" d="M121 53q0 45 32.5 76t77.5 31q33 0 55.5 -19.5t22.5 -52.5q0 -43 -33.5 -77t-76.5 -34q-33 0 -55.5 21.5t-22.5 54.5z" />
<glyph unicode="/" horiz-adv-x="647" d="M-51 -10q0 3 1 6t2.5 6.5t2.5 5.5l649 1401q6 15 12.5 20t20.5 5h72q14 0 14 -11l-6 -18l-643 -1399q-7 -18 -14 -22t-25 -4h-70q-16 0 -16 10z" />
<glyph unicode="0" d="M78 457q0 90 15.5 193t45.5 214t80.5 211.5t115.5 181.5t156 129t195 48q97 0 167 -41t106.5 -112.5t52.5 -150.5t16 -172q0 -77 -10.5 -164t-33.5 -182t-57 -185t-84 -171.5t-110 -142.5t-140.5 -97t-170.5 -36q-79 0 -140.5 28t-99 73.5t-62 109t-33.5 128.5t-9 138z M221 469q0 -51 4.5 -96.5t19 -98t38 -89.5t65.5 -62t98 -25q89 0 165 63t125 159.5t84 214t50 222.5t15 189q0 41 -3 78.5t-11 82t-24.5 80t-39.5 66t-59 47.5t-82 17q-76 0 -142.5 -44.5t-114 -118.5t-84.5 -164t-59 -186.5t-33.5 -181.5t-11.5 -153z" />
<glyph unicode="1" d="M285 1130q-8 20 22 35l383 230q27 16 66 16h51q26 0 22 -35l-237 -1341q-5 -35 -39 -35h-66q-19 0 -25 8.5t-3 26.5l217 1231l-326 -195q-9 -6 -22 -6q-15 0 -21 12z" />
<glyph unicode="2" d="M21 10q-4 10 2 25l8 51q5 31 26 49q47 42 149 130.5t192 169t163 153.5q130 131 209.5 242t101.5 208q9 34 9 72q0 96 -64.5 151.5t-167.5 55.5q-133 0 -293 -80q-15 -10 -22 -10q-13 0 -19 16l-20 53q-9 25 22 41q166 97 373 97q147 0 240.5 -78.5t93.5 -214.5 q0 -58 -10 -97q-31 -139 -142.5 -283.5t-336.5 -348.5q-157 -144 -332 -295h616q16 0 22.5 -4t6 -11.5t-1.5 -17.5l-8 -55q-3 -17 -12.5 -23t-28.5 -6h-750q-22 0 -26 10z" />
<glyph unicode="3" d="M60.5 57q-3.5 9 0.5 17l37 73q4 8 17.5 8.5t19.5 -3.5q122 -56 246 -56q154 0 266.5 109.5t112.5 261.5q0 119 -84.5 179.5t-218.5 60.5h-45q-13 0 -19.5 7.5t-3.5 18.5l17 68q3 12 22 12h45q195 0 291 119q65 83 65 198q0 93 -64.5 143t-168.5 50q-124 0 -248 -59 q-18 -9 -26 -9q-12 0 -15 15l-14 57q-3 11 3 17.5t21 15.5q142 74 322 74q147 0 239.5 -74t92.5 -205q0 -78 -30.5 -153t-84.5 -132q-78 -81 -178 -106v-2q104 -23 163.5 -100.5t59.5 -188.5q0 -107 -47 -201.5t-122 -157t-167.5 -98.5t-185.5 -36q-192 0 -307 63 q-8 5 -11.5 14z" />
<glyph unicode="4" d="M51 371l8 47q5 29 33 74l545 890q20 29 45 29h78q16 0 16 -16q0 -10 -8 -23l-557 -917h557l61 346q5 28 33 28h74q18 0 23 -7t2 -23l-136 -772q-3 -25 -32 -25h-78q-26 0 -23 23l56 315h-670q-34 0 -27 31z" />
<glyph unicode="5" d="M68 88l43 70q5 8 13.5 9t16.5 -5q118 -66 260 -66q79 0 153.5 30.5t129.5 88.5q104 112 104 287q0 75 -31.5 126.5t-88.5 77.5t-119 36t-141 10h-115q-23 0 -30.5 8t-4.5 26l104 590q3 19 11.5 27t25.5 8h607q20 0 16 -25l-18 -77q-4 -15 -27 -15h-498l-78 -434h86 q128 0 226 -35t158.5 -113.5t60.5 -193.5q0 -104 -39.5 -204t-110.5 -173q-158 -161 -411 -161q-164 0 -293 75q-19 12 -10 33z" />
<glyph unicode="6" d="M100 385q0 82 21 211q31 178 101.5 350t180.5 293q179 195 416 195q64 0 154 -21q11 -3 15.5 -13t0.5 -20l-18 -59q-7 -21 -25 -21q-1 0 -4 1.5t-4 1.5q-77 18 -137 18q-210 0 -367 -254q-47 -73 -84.5 -166t-56.5 -170q69 66 167.5 101.5t178.5 35.5q141 0 225 -82 t84 -231q0 -244 -164 -422q-143 -153 -338 -153q-181 0 -263.5 108t-82.5 297zM240 389q0 -299 225 -299q76 0 146 46.5t116 121.5q78 127 78 264q0 103 -49.5 169.5t-153.5 66.5q-175 0 -340 -148q-22 -112 -22 -221z" />
<glyph unicode="7" d="M141 14q0 13 9 25l784 1255h-615q-30 0 -24 25l16 76q3 16 25 16h737q29 0 29 -20q0 -4 -6 -41q-9 -45 -27 -76l-770 -1245q-18 -29 -47 -29h-94q-17 0 -17 14z" />
<glyph unicode="8" d="M49 285q0 295 389 469q-103 54 -155 131.5t-52 167.5q0 153 117 258q64 59 150.5 91t181.5 32q139 0 227 -72t88 -199q0 -58 -19 -110t-48 -91t-73.5 -76.5t-85.5 -63t-95 -54.5q132 -64 197 -151.5t65 -186.5q0 -165 -123 -291q-73 -76 -177.5 -117.5t-219.5 -41.5 q-162 0 -264.5 78.5t-102.5 226.5zM190 313q0 -73 37 -125.5t92.5 -76t120.5 -23.5q146 0 249.5 93t103.5 237q0 53 -21 98t-60 79.5t-78.5 59t-92.5 50.5q-59 -29 -99 -52t-92 -61t-83.5 -76t-54 -91t-22.5 -112zM373 1071q0 -154 196 -256q53 28 83.5 46t74.5 51t68 63 t42.5 75t18.5 95q0 85 -54 132.5t-149 47.5q-116 0 -198 -70t-82 -184z" />
<glyph unicode="9" d="M123 33l18 59q8 25 33 19q82 -19 137 -19q206 0 367 254q47 73 84.5 166t56.5 170q-70 -66 -168.5 -101.5t-177.5 -35.5q-141 0 -225 82t-84 231q0 244 164 422q144 154 338 154q181 0 263.5 -108.5t82.5 -297.5q0 -82 -21 -211q-31 -178 -101.5 -350t-180.5 -293 q-178 -194 -416 -194q-68 0 -154 20q-23 6 -16 33zM307 891q0 -103 49.5 -169.5t153.5 -66.5q175 0 340 148q22 112 22 221q0 299 -225 299q-76 0 -146 -46.5t-116 -121.5q-78 -122 -78 -264z" />
<glyph unicode=":" horiz-adv-x="444" d="M76 59q0 45 33.5 76t78.5 31q33 0 55.5 -19.5t22.5 -52.5q0 -43 -33.5 -76.5t-76.5 -33.5q-33 0 -56.5 21t-23.5 54zM223 897q0 45 34 78t79 33q34 0 56 -21t22 -55q0 -44 -33.5 -76.5t-77.5 -32.5q-33 0 -56.5 20.5t-23.5 53.5z" />
<glyph unicode=";" horiz-adv-x="462" d="M41 -217q0 8 12 16q74 62 92 129q9 22 9 33q0 26 -24 65.5t-24 61.5q0 44 30 72t71 28q37 0 63.5 -28t26.5 -70q0 -74 -53 -164q-56 -95 -156 -168q-13 -10 -22 -10q-8 0 -13 8l-10 17q-2 2 -2 10zM250 897q0 45 33.5 78t78.5 33q34 0 56 -21t22 -55q0 -44 -33 -76.5 t-77 -32.5q-33 0 -56.5 20.5t-23.5 53.5z" />
<glyph unicode="&#x3c;" horiz-adv-x="1015" d="M174 666q0 2 1 5t1 5l6 29q5 18 23 30l604 377q2 2 10 2q11 0 17 -12l28 -66q2 -2 2 -6q0 -11 -18 -22l-506 -318l395 -313q13 -10 13 -19q0 -5 -5 -10l-55 -72q-13 -16 -22 -16q-7 0 -13 6l-469 377q-12 9 -12 23z" />
<glyph unicode="=" horiz-adv-x="1015" d="M156 330v8l10 59q3 25 29 25h571q25 0 25 -16v-9l-11 -57q-6 -27 -32 -27h-572q-20 0 -20 17zM223 721v8l10 57q3 27 29 27h574q22 0 22 -18v-9l-10 -57q-6 -27 -31 -27h-573q-21 0 -21 19z" />
<glyph unicode="&#x3e;" horiz-adv-x="1015" d="M154 346q0 12 18 23l506 317l-395 313q-11 11 -11 19q0 6 2 10l56 72q11 14 22 14q9 0 13 -4l469 -377q12 -9 12 -22q0 -7 -2 -11l-6 -28q-3 -21 -23 -31l-604 -377q-4 -4 -8 -4q-13 0 -19 14l-28 66q0 1 -1 3t-1 3z" />
<glyph unicode="?" horiz-adv-x="833" d="M123 49q0 44 32.5 75.5t75.5 31.5q33 0 55.5 -19.5t22.5 -52.5q0 -42 -34 -74.5t-76 -32.5q-33 0 -54.5 20t-21.5 52zM221 391q0 15 4 35q7 48 24 92.5t33.5 74t51 68.5t53 57t62.5 60l163 152q105 95 105 229q0 83 -58 127.5t-143 44.5q-111 0 -231 -63q-12 -6 -15 -6 q-11 0 -14 12l-16 57v4q0 12 20 23q63 34 142 55t153 21q123 0 203 -66t80 -184q0 -175 -144 -312l-145 -137q-10 -9 -44.5 -41t-47 -45t-36.5 -39.5t-38.5 -51t-26.5 -52.5q-23 -60 -28 -107q-4 -26 -25 -26h-63q-11 0 -15 4t-4 14z" />
<glyph unicode="@" horiz-adv-x="1640" d="M98 508q0 177 77.5 347.5t204 297t297 204t347.5 77.5q241 0 391 -132t150 -364q0 -97 -35 -206.5t-95 -206t-151.5 -159.5t-193.5 -63q-66 0 -105.5 35.5t-38.5 99.5q0 29 6 56h-2q-57 -81 -128 -122.5t-144 -41.5q-76 0 -120 48.5t-44 143.5q0 44 8 88q20 108 79 209 t151.5 169.5t193.5 68.5q52 0 98.5 -33.5t49.5 -99.5h2l26 75q9 25 27 25h53q15 0 15 -12q0 -5 -3 -8l-151 -381q-41 -109 -41 -168q0 -84 82 -84q66 0 126 38t103 98.5t74.5 134.5t47 146.5t15.5 133.5q0 199 -125 309t-333 110q-126 0 -245.5 -45.5t-215 -125.5t-168 -183 t-111.5 -224.5t-39 -244.5q0 -217 135 -336t361 -119q157 0 338 78q26 11 29 -6l8 -41q1 -3 1 -6v-4.5t-1 -3.5t-1.5 -2.5t-3 -2t-3.5 -2t-4 -1.5t-5 -2q-181 -90 -389 -90q-175 0 -309.5 60.5t-212.5 181.5t-78 286zM629 549q0 -61 25.5 -94t72.5 -33q59 0 123 51.5 t106 120.5l101 256q-13 123 -113 123q-59 0 -114.5 -37t-93.5 -93t-63.5 -114t-35.5 -108q-8 -54 -8 -72z" />
<glyph unicode="A" horiz-adv-x="1193" d="M-92 10q0 11 4 17l737 1357q13 27 35 27h82q23 0 27 -25l249 -1351q1 -5 1 -9q0 -26 -21 -26h-104q-15 0 -21 5.5t-8 19.5l-68 409h-551l-219 -414q-11 -20 -33 -20h-92q-18 0 -18 10zM324 543h479l-86 516q-17 99 -27 178h-4q-10 -31 -90 -180z" />
<glyph unicode="B" horiz-adv-x="1116" d="M53 35l236 1339q5 37 45 37h270q81 0 148.5 -14.5t123 -45t86.5 -84.5t31 -128q0 -135 -86.5 -246.5t-220.5 -138.5v-2q129 -8 211 -84t82 -203q0 -90 -38 -181t-101 -151q-145 -133 -441 -133h-317q-20 0 -26 8q-4 5 -4 15q0 5 1 12zM203 111h196q204 0 308 79 q59 45 93 120t34 153q0 111 -89 172q-84 53 -247 53h-193zM324 793h149q197 0 303 118q74 87 74 217q0 45 -17 77.5t-42 50t-66 27.5t-76.5 12.5t-85.5 2.5h-149z" />
<glyph unicode="C" horiz-adv-x="1136" d="M78 516q0 130 32.5 260.5t98 248.5t155 209.5t213 145.5t261.5 54q206 0 340 -88q12 -9 12 -17q0 -4 -4 -12l-41 -70q-8 -14 -17 -14q-3 0 -26 14q-119 70 -271 70q-94 0 -179 -34t-149.5 -92t-116.5 -134.5t-85 -163t-50.5 -176t-17.5 -174.5q0 -95 20.5 -173.5t64 -141 t118.5 -97.5t176 -35q143 0 306 68q30 12 34 12q12 0 15 -16l14 -64q5 -21 -27 -35q-178 -81 -381 -81q-243 0 -369 145.5t-126 390.5z" />
<glyph unicode="D" horiz-adv-x="1316" d="M51 39l236 1333q5 24 13 31.5t32 7.5h246q188 0 297.5 -21.5t189.5 -80.5q174 -128 174 -414q0 -188 -60 -370.5t-178 -303.5q-211 -221 -591 -221h-324q-36 0 -36 29q0 4 1 10zM205 117h172q362 0 516 180q95 111 143.5 264t48.5 303q0 222 -108 330q-58 59 -149 80.5 t-214 21.5h-202z" />
<glyph unicode="E" horiz-adv-x="1003" d="M53 35l236 1339q6 37 43 37h674q20 0 20 -15q0 -4 -2 -10l-18 -65q-9 -23 -39 -23h-553l-88 -505h485q15 0 22.5 -6.5t4.5 -18.5l-13 -61q-6 -27 -32 -27h-488l-100 -565h573q31 0 25 -25l-12 -63q-6 -27 -35 -27h-674q-20 0 -26 7q-4 5 -4 16q0 5 1 12z" />
<glyph unicode="F" horiz-adv-x="946" d="M53 35l236 1339q6 37 43 37h674q20 0 20 -15q0 -4 -2 -10l-18 -65q-9 -23 -39 -23h-553l-88 -505h485q15 0 22.5 -6.5t4.5 -18.5l-13 -61q-6 -27 -32 -27h-488l-115 -645q-5 -22 -11 -28.5t-23 -6.5h-74q-20 0 -26 7q-4 5 -4 16q0 5 1 12z" />
<glyph unicode="G" horiz-adv-x="1277" d="M78 518q0 191 68.5 372t195.5 316q215 228 504 228q204 0 338 -84q12 -9 12 -17q0 -5 -6 -14l-35 -66q-8 -14 -20 -14q-7 0 -15 4q-54 34 -130 54t-152 20q-114 0 -215 -49t-179 -135q-104 -116 -159.5 -274t-55.5 -320q0 -98 21.5 -177t65.5 -139.5t117.5 -93.5 t170.5 -33q155 0 295 62l92 522h-227q-23 0 -23 18v7l13 63q6 25 28 25h338q25 0 25 -19v-10l-111 -629q-4 -26 -15.5 -39t-45.5 -30q-183 -86 -400 -86q-248 0 -371.5 143.5t-123.5 394.5z" />
<glyph unicode="H" horiz-adv-x="1320" d="M51 29l240 1353q6 29 33 29h84q28 0 22 -31l-104 -587h698l104 591q5 27 33 27h84q24 0 24 -21q0 -4 -1 -8l-240 -1353q-3 -29 -31 -29h-84q-30 0 -24 31l117 649h-701l-115 -651q-3 -29 -32 -29h-84q-24 0 -24 20q0 4 1 9z" />
<glyph unicode="I" horiz-adv-x="724" d="M23 20l8 54q3 20 26 20h127l215 1223h-135q-13 0 -16.5 5t-1.5 17l10 52q3 20 25 20h407q24 0 21 -20l-9 -50q-3 -24 -26 -24h-137l-215 -1223h137q13 0 16 -6.5t0 -15.5l-10 -52q-3 -20 -25 -20h-399q-21 0 -18 20z" />
<glyph unicode="J" horiz-adv-x="755" d="M-20 23l18 55q6 19 25 16q66 -8 94 -8q57 0 108.5 20t81.5 60q56 72 86 254l160 897h-240q-21 0 -18 24l10 50q6 20 25 20h352q21 0 21 -18q0 -3 -1 -7l-161 -917q-27 -155 -68.5 -255.5t-114.5 -156.5q-98 -75 -266 -75q-41 0 -96 10q-18 2 -18 19q0 5 2 12z" />
<glyph unicode="K" horiz-adv-x="1034" d="M53 31l238 1349q5 31 33 31h84q27 0 20 -31l-109 -624h3l626 637q18 18 43 18h86q19 0 19 -14q0 -9 -6 -15l-652 -653l461 -696q9 -11 5.5 -22t-19.5 -11h-109q-22 0 -32 6t-21 25l-416 645h-2l-115 -645q-5 -31 -32 -31h-84q-22 0 -22 20q0 5 1 11z" />
<glyph unicode="L" horiz-adv-x="888" d="M53 33l238 1349q6 29 28 29h91q22 0 18 -31l-221 -1263h518q16 0 19 -6q2 -4 2 -10q0 -4 -1 -9l-12 -67q-6 -25 -28 -25h-629q-24 0 -24 22q0 5 1 11z" />
<glyph unicode="M" horiz-adv-x="1681" d="M66 27l284 1349q6 35 35 35h59q27 0 35 -29l293 -1175h4l684 1179q14 25 39 25h66q21 0 21 -18q0 -3 -1 -7l-186 -1355q-3 -31 -31 -31h-88q-16 0 -20 9t0 28l147 1059h-4l-615 -1076q-12 -20 -34 -20h-41q-24 0 -29 23l-266 1073h-4l-215 -1069q-4 -17 -10.5 -22 t-20.5 -5h-82q-21 0 -21 18q0 4 1 9z" />
<glyph unicode="N" horiz-adv-x="1378" d="M51 29l240 1353q3 29 33 29h67q21 0 35 -22l565 -1135h4l199 1128q1 13 10 21t21 8h84q19 0 19 -21q0 -4 -1 -8l-240 -1351q-7 -31 -30 -31h-68q-25 0 -41 31l-563 1132h-2l-199 -1132q-7 -31 -34 -31h-74q-16 0 -22 6q-4 4 -4 13q0 4 1 10z" />
<glyph unicode="O" horiz-adv-x="1316" d="M78 485q0 188 62.5 380.5t178.5 332.5q92 110 214 173t266 63q114 0 200 -39t137.5 -109.5t77 -161.5t25.5 -202q0 -105 -20.5 -213.5t-59.5 -214.5t-101 -198.5t-139.5 -163t-181 -111.5t-219.5 -41q-113 0 -198.5 37.5t-137.5 106t-78 159t-26 202.5zM229 498 q0 -84 16.5 -154t51.5 -127t97.5 -89t146.5 -32q92 0 172.5 38.5t138.5 104t104.5 148.5t74 176t42 183t14.5 172q0 68 -9.5 125.5t-32.5 108.5t-57.5 86.5t-88 56t-121.5 20.5q-108 0 -201 -55t-155.5 -142t-107 -196.5t-65 -217.5t-20.5 -206z" />
<glyph unicode="P" horiz-adv-x="1026" d="M52 14q-1 5 -1 9q0 10 4 20l236 1337q6 31 33 31h249q441 0 441 -330q0 -75 -27.5 -158.5t-71.5 -146.5q-77 -109 -200.5 -169t-276.5 -60h-155l-93 -518q-5 -29 -38 -29h-78q-19 0 -22 14zM301 659h141q105 0 191.5 37.5t142.5 106.5q43 54 67.5 128.5t24.5 153.5 q0 55 -18 94.5t-46 62.5t-71.5 36.5t-85.5 17.5t-98 4h-133z" />
<glyph unicode="Q" horiz-adv-x="1323" d="M80 485q0 187 63 380t179 333q92 111 213.5 173.5t265.5 62.5q114 0 200.5 -39t138.5 -109.5t77.5 -162t25.5 -201.5q0 -127 -29.5 -259t-85.5 -253.5t-147 -221t-203 -151.5q54 -20 135 -80q112 -84 195 -107q16 -3 8 -24l-24 -64q-6 -16 -25 -16q-4 0 -20 4 q-105 29 -238 133q-69 58 -112 79.5t-103 21.5q-14 0 -38.5 -2t-35.5 -2q-113 0 -198.5 37.5t-137.5 106t-78 159t-26 202.5zM233 498q0 -85 16 -154.5t51 -126.5t97 -89t146 -32q92 0 172.5 38.5t139 104t104.5 148.5t74 176t42.5 183t14.5 172q0 86 -16 155t-51 125 t-96.5 86.5t-146.5 30.5q-108 0 -201 -55t-155 -142t-106.5 -196.5t-64.5 -217.5t-20 -206z" />
<glyph unicode="R" horiz-adv-x="1075" d="M51 27l240 1351q3 18 10.5 25.5t24.5 7.5h276q284 0 379 -143q45 -65 45 -168q0 -99 -40 -200t-112 -169q-88 -85 -227 -119l236 -579q12 -33 -19 -33h-96q-27 0 -37 25l-219 567h-223l-99 -565q-3 -27 -28 -27h-90q-22 0 -22 20q0 3 1 7zM309 700h174q91 0 169 29 t128 84q47 51 73 122.5t26 147.5q0 119 -78.5 169.5t-229.5 50.5h-155z" />
<glyph unicode="S" horiz-adv-x="991" d="M16 55q0 7 7 21l28 63q9 21 23 21q4 0 16 -4q143 -56 272 -56q138 0 242 76q53 40 84 99t31 124q0 76 -39 126t-111 96l-227 143q-76 48 -118 117t-42 151q0 90 42 167t109.5 127.5t151 79t168.5 28.5q163 0 295 -60q17 -7 17 -20q0 -5 -4 -17l-27 -61q-8 -16 -19 -16 q-8 0 -20 6q-119 53 -250 53q-79 0 -149 -28.5t-117 -89t-47 -140.5q0 -115 131 -197l194 -123q100 -63 152.5 -133t52.5 -174q0 -94 -40 -180.5t-109 -147.5q-144 -126 -371 -126q-167 0 -305 53q-21 9 -21 22z" />
<glyph unicode="T" horiz-adv-x="1079" d="M143 1323l11 66q3 22 28 22h951q25 0 25 -17q0 -4 -1 -8l-20 -65q-4 -14 -12.5 -18.5t-28.5 -4.5h-396l-223 -1271q-5 -27 -31 -27h-88q-17 0 -20.5 6t0.5 19l223 1273h-397q-14 0 -18 6q-3 4 -4 12q0 3 1 7z" />
<glyph unicode="U" horiz-adv-x="1392" d="M131 367q0 82 29 260l133 753q5 31 35 31h78q30 0 22 -41l-127 -729q-29 -171 -29 -242q0 -150 74.5 -225.5t251.5 -75.5q99 0 176.5 31.5t127 80.5t87 124.5t58 147t36.5 165.5l129 737q3 27 29 27h92q17 -1 19 -13q1 -5 0 -9q0 -7 -2 -13l-136 -764q-58 -321 -217 -477 q-158 -155 -424 -155q-227 0 -334.5 101.5t-107.5 285.5z" />
<glyph unicode="V" horiz-adv-x="1206" d="M186 1374q-2 7 -2 13q0 24 27 24h94q20 0 28.5 -6t10.5 -21l186 -1191h2l594 1187q9 18 19 24.5t29 6.5h77q22 0 22 -15q0 -7 -5 -18l-695 -1353q-10 -25 -38 -25h-91q-25 0 -30 31z" />
<glyph unicode="W" horiz-adv-x="1767" d="M186 1376v5q0 11 6 19q8 10 23 11h86q20 0 27.5 -6.5t9.5 -22.5l96 -1185h2l512 1187q7 16 16 21.5t25 5.5h64q27 0 30 -25l93 -1189h4l518 1185q13 29 43 29h78q11 0 15 -10q2 -4 2 -9t-3 -10l-612 -1355q-12 -27 -37 -27h-92q-13 0 -19.5 6.5t-7.5 22.5l-88 1157h-4 l-502 -1157q-8 -18 -15 -23.5t-24 -5.5h-90q-13 0 -19.5 7t-7.5 26z" />
<glyph unicode="X" horiz-adv-x="1107" d="M-55 12q0 9 12 25l528 696l-256 643q-6 10 -2 22.5t21 12.5h98q26 0 35 -25l207 -528h2l391 526q11 16 20.5 21.5t28.5 5.5h88q17 0 17 -12q0 -5 -9 -19l-487 -635l289 -710q6 -14 -1 -24.5t-22 -10.5h-92q-22 0 -32.5 6t-16.5 23l-227 587h-2l-433 -583 q-15 -20 -26 -26.5t-31 -6.5h-80q-20 0 -20 12z" />
<glyph unicode="Y" horiz-adv-x="1083" d="M184 1378q-2 4 -2 9q0 7 6 13q8 11 23 11h82q21 0 29.5 -6t13.5 -21l219 -706h2l451 702q11 19 20 25t29 6h76q18 0 18 -12q0 -8 -6 -17l-547 -825l-92 -526q-6 -31 -35 -31h-80q-26 0 -26 18q0 9 2 13l92 520z" />
<glyph unicode="Z" horiz-adv-x="1073" d="M-59 25l6 34q3 19 20 41l951 1194v4h-656q-16 0 -20 5t-2 20l10 66q3 22 29 22h813q24 0 24 -19v-6l-6 -28q-7 -28 -27 -53l-946 -1188v-2h729q31 0 25 -29l-10 -57q-6 -29 -31 -29h-889q-16 0 -19 6q-2 4 -2 10q0 4 1 9z" />
<glyph unicode="[" horiz-adv-x="610" d="M37 -276q0 10 2 16l293 1661q4 21 11.5 27t25.5 6h313q27 0 27 -15q0 -1 -1 -4.5t-1 -5.5l-9 -49q-3 -15 -9 -20t-23 -5h-217l-271 -1532h217q25 0 25 -14v-8l-10 -49q-3 -15 -9 -21t-22 -6h-316q-26 0 -26 19z" />
<glyph unicode="\" horiz-adv-x="692" d="M162 1411v8q0 23 22 23h66q16 0 22 -5.5t9 -21.5l260 -1411v-10q0 -21 -19 -21h-69q-14 0 -20 5.5t-9 19.5z" />
<glyph unicode="]" horiz-adv-x="610" d="M-98 -281q0 1 1 5t1 6l8 49q3 15 9.5 19.5t23.5 4.5h219l270 1532h-219q-25 0 -25 15v8l11 51q3 15 8.5 20t21.5 5h318q26 0 26 -19q0 -10 -2 -16l-294 -1659q-5 -22 -11.5 -28.5t-23.5 -6.5h-316q-26 0 -26 14z" />
<glyph unicode="^" horiz-adv-x="1064" d="M117 823q0 9 12 21l444 542q20 23 33 23h25q14 0 24 -20l246 -574q0 -2 1 -6t1 -6q0 -13 -14 -19l-58 -26q-12 -6 -18 -6q-9 0 -14 16l-207 489l-381 -477q-14 -18 -29 -18q-6 0 -12 6l-43 39q-10 7 -10 16z" />
<glyph unicode="_" horiz-adv-x="1007" d="M12 -231l6 41q3 20 29 20h922q15 0 20.5 -4t5.5 -14v-7l-6 -34q-5 -25 -31 -25h-921q-25 0 -25 14v9z" />
<glyph unicode="`" horiz-adv-x="636" d="M147 1348q0 7 5 12l49 61q11 15 22 15q7 0 13 -6l239 -211q6 -6 6 -11q0 -8 -4 -12l-22 -33q-7 -10 -17 -10q-2 0 -10 4l-270 172q-11 5 -11 19z" />
<glyph unicode="a" horiz-adv-x="1079" d="M76 365q0 124 48 253.5t134 225.5q70 78 162 123t196 45q178 0 353 -101q19 -11 16 -32l-121 -668q-10 -68 -10 -76q0 -43 33 -43q24 0 76 27q8 4 10 4q14 0 14 -14l2 -46q0 -17 -22 -30q-19 -12 -60 -26.5t-78 -14.5q-94 0 -94 106q0 14 6 68h-4q-52 -77 -143 -131.5 t-205 -54.5q-81 0 -142.5 30t-98 83t-54.5 121.5t-18 150.5zM211 358q0 -127 56 -200.5t155 -73.5q113 0 198 65t134 164l94 523q-85 71 -230 71q-142 0 -249 -119q-74 -83 -116 -202t-42 -228z" />
<glyph unicode="b" horiz-adv-x="1067" d="M78 87v10q0 15 4 28l225 1284q6 32 31 35q76 10 82 10q21 0 16 -37l-96 -545q70 66 157 103t175 37q156 0 237.5 -102t81.5 -267q0 -97 -22 -191.5t-67.5 -180t-109.5 -150t-155 -103t-197 -38.5q-91 0 -183.5 22.5t-158.5 54.5q-18 9 -20 30zM211 139q37 -23 102.5 -39 t128.5 -16q83 0 153 35t116.5 91.5t79.5 129.5t48 148t15 149q0 125 -54 195.5t-169 70.5q-78 0 -165.5 -41.5t-146.5 -105.5z" />
<glyph unicode="c" horiz-adv-x="849" d="M76 367q0 122 41 238t113 206.5t180.5 145.5t234.5 55q131 0 232 -58q14 -8 14 -16q0 -6 -6 -18l-25 -54q-5 -12 -18 -12q-4 0 -29 10q-95 45 -172 45q-84 0 -155 -32t-120.5 -85t-84.5 -123.5t-51.5 -147t-16.5 -154.5q0 -125 66 -205t198 -80q101 0 213 41q24 8 27 8 q11 0 14 -12l8 -49q0 -1 1 -3.5t1 -3.5q0 -14 -28 -26q-132 -57 -264 -57q-188 0 -280.5 101t-92.5 286z" />
<glyph unicode="d" horiz-adv-x="1073" d="M76 354q0 138 48 270t138 230q145 158 340 158q82 0 155 -37t105 -103l94 539q6 30 29 33l76 10h12q17 0 17 -12q0 -1 -1.5 -3t-1.5 -3l-247 -1409q-3 -27 -23 -27h-78q-20 0 -20 20v11l16 96q-66 -67 -155.5 -107t-180.5 -40q-111 0 -185 50.5t-106 132t-32 191.5z M213 362q0 -130 56.5 -205t168.5 -75q81 0 169.5 46t142.5 116l88 499q-25 75 -86.5 120.5t-141.5 45.5q-153 0 -260 -127q-66 -81 -101.5 -195.5t-35.5 -224.5z" />
<glyph unicode="e" horiz-adv-x="983" d="M80 367q0 133 45.5 259.5t132.5 219.5q156 166 373 166q144 0 221.5 -87.5t77.5 -236.5q0 -74 -17 -170q-4 -23 -13 -30t-34 -7h-641q-10 -48 -10 -100q0 -136 67 -217.5t210 -81.5q119 0 237 41q40 13 43 -12l4 -48q2 -18 -26 -30q-126 -53 -291 -53q-187 0 -283 102 t-96 285zM242 571h555q12 40 12 119q0 100 -49 160.5t-150 60.5q-149 0 -256 -120q-73 -81 -112 -220z" />
<glyph unicode="f" horiz-adv-x="655" d="M16 -383l224 1282h-121q-14 0 -18 6.5t-1 22.5l6 37q3 24 29 24h121l8 45q16 86 27.5 134t39.5 108.5t68 101.5q97 97 248 97q93 0 164 -29q11 -5 11 -17q0 -6 -3 -14l-14 -47q-6 -21 -45 -10q-53 16 -111 16q-108 0 -165.5 -72.5t-82.5 -211.5l-18 -101h254 q13 0 17.5 -5t2.5 -17l-8 -47q-3 -21 -26 -21h-254l-228 -1292q-7 -31 -30 -31h-76q-21 0 -21 24q0 8 2 17z" />
<glyph unicode="g" horiz-adv-x="1069" d="M76 -365q0 10 6 19l27 47q7 12 20 12q1 0 31 -10q114 -49 205 -49q57 0 105 11.5t83 31.5t64 50t48.5 62.5t35.5 75.5t25.5 82t18.5 88l17 90q-54 -64 -148.5 -104.5t-181.5 -40.5q-164 0 -246 100.5t-82 266.5q0 119 38 233t106 206.5t173.5 149t229.5 56.5 q94 0 185.5 -40t160.5 -108q15 -15 15 -37q0 -10 -2 -16q-93 -516 -138 -764q-21 -116 -59 -204.5t-99.5 -156t-153 -102.5t-210.5 -35q-61 0 -133 18t-125 46q-16 10 -16 22zM242 387q0 -128 54.5 -205.5t176.5 -77.5q85 0 169 43.5t140 110.5l95 545q-35 43 -96.5 73.5 t-139.5 30.5q-95 0 -173 -48.5t-126 -126t-74 -167.5t-26 -178z" />
<glyph unicode="h" horiz-adv-x="1071" d="M70 35l243 1378q6 28 29 31l76 10h4q24 0 18 -35l-94 -542q68 59 166 97t193 38q124 0 192 -67.5t68 -182.5q0 -54 -17 -158l-100 -577q-3 -15 -8 -21t-17 -6h-75q-20 0 -24 7.5t-1 31.5l100 584q11 60 11 102q0 83 -40 129.5t-135 46.5q-81 0 -171.5 -38.5 t-161.5 -100.5l-131 -737q-3 -25 -27 -25h-80q-19 0 -19 22q0 6 1 13z" />
<glyph unicode="i" horiz-adv-x="464" d="M84 41l164 922q6 26 31 26h73q29 0 21 -37l-162 -923q-6 -29 -31 -29h-74q-23 0 -23 27q0 6 1 14zM279 1233q0 37 29 63.5t67 26.5q29 0 48 -16.5t19 -44.5q0 -38 -29.5 -65.5t-66.5 -27.5q-28 0 -47.5 17.5t-19.5 46.5z" />
<glyph unicode="j" horiz-adv-x="522" d="M-272 -408l16 52q5 19 29 16q40 -8 63 -8q59 0 112.5 22t86.5 62q69 81 104 278l166 949q6 26 29 26h80q24 0 18 -26l-162 -932q-47 -271 -159 -381q-99 -99 -277 -99q-49 0 -92 11q-16 4 -16 19q0 5 2 11zM342 1231q0 38 28.5 65t65.5 27q29 0 48.5 -17.5t19.5 -45.5 q0 -37 -29 -64t-67 -27q-29 0 -47.5 16.5t-18.5 45.5z" />
<glyph unicode="k" horiz-adv-x="854" d="M70 37l241 1376q6 28 31 31l74 10h6q24 0 20 -29l-153 -870l426 416q18 18 39 18h73q23 0 23 -12q0 -13 -14 -27l-371 -360l264 -553q6 -12 6 -21q0 -16 -22 -16h-88q-32 0 -43 25l-226 477l-94 -90l-67 -383q-6 -29 -29 -29h-74q-24 0 -24 23q0 6 2 14z" />
<glyph unicode="l" horiz-adv-x="432" d="M71 14q-1 6 -1 11q0 7 2 14l241 1374q3 16 9.5 22.5t19.5 8.5q82 10 86 10q15 0 15 -21q0 -5 -1 -12l-245 -1390q-3 -17 -9.5 -24t-19.5 -7h-76q-18 0 -21 14z" />
<glyph unicode="m" horiz-adv-x="1656" d="M70 41l163 922q6 26 29 26h62q37 0 30 -35l-14 -84q165 142 348 142q175 0 234 -140q172 140 366 140q126 0 194 -67t68 -185q0 -43 -22 -172l-98 -559q-6 -29 -29 -29h-76q-29 0 -20 41l98 557q18 95 18 135q0 172 -186 172q-63 0 -146 -36t-153 -89q2 -6 2 -24 q0 -35 -25 -185l-92 -542q-6 -29 -28 -29h-74q-30 0 -21 41l95 532q20 110 20 154q0 85 -40.5 131.5t-137.5 46.5q-139 0 -311 -147l-129 -729q-6 -29 -29 -29h-76q-22 0 -22 24q0 7 2 17z" />
<glyph unicode="n" horiz-adv-x="1073" d="M68 12q-1 4 -1 9q0 8 3 16l163 924q6 28 29 28h74q6 0 10.5 -2t6.5 -3.5t2.5 -7t0.5 -7t-1 -8.5l-1 -7l-14 -82q177 140 371 140q127 0 191.5 -66.5t64.5 -189.5q0 -26 -15 -123l-106 -604q-6 -29 -29 -29h-78q-24 0 -18 39l102 584q13 67 13 116q0 84 -45 123t-136 39 q-76 0 -166 -39t-165 -102l-127 -729q-7 -31 -33 -31h-76q-18 0 -20 12z" />
<glyph unicode="o" horiz-adv-x="1056" d="M76 360q0 121 37 236t104 208.5t173 150.5t233 57q178 0 268 -103t90 -276q0 -123 -37 -238.5t-104.5 -208.5t-174 -149.5t-235.5 -56.5q-177 0 -265.5 103t-88.5 277zM211 369q0 -289 233 -289q98 0 177.5 51t127 132t72.5 173t25 182q0 130 -56.5 210.5t-181.5 80.5 q-78 0 -144 -33t-112 -87t-78.5 -124.5t-47.5 -145.5t-15 -150z" />
<glyph unicode="p" horiz-adv-x="1071" d="M-13 -427q-2 4 -2 10t3 14l241 1366q3 26 23 26h76q22 0 22 -18q0 -3 -16 -109q62 69 152.5 109.5t185.5 40.5q83 0 146 -29.5t101 -82.5t57 -121t19 -150q0 -89 -22.5 -181t-67.5 -176t-107 -150t-147.5 -105.5t-181.5 -39.5q-85 0 -158 37.5t-104 102.5l-90 -516 q-3 -16 -9 -23t-20 -8l-78 -6h-3q-16 0 -20 9zM231 250q25 -75 85.5 -121.5t140.5 -46.5t147.5 34.5t113.5 90.5t78 128.5t47 147.5t15 148q0 130 -58 202t-171 72q-74 0 -162.5 -45t-149.5 -112z" />
<glyph unicode="q" horiz-adv-x="1064" d="M76 352q0 97 22.5 191t69 179t111.5 149.5t156.5 102.5t197.5 38q84 0 175 -23t157 -55q19 -8 23 -29q1 -8 1 -15q0 -13 -4 -24l-225 -1284q-6 -32 -31 -35q-78 -10 -84 -10q-15 0 -16.5 10.5t2.5 22.5l96 545q-65 -62 -152.5 -98.5t-175.5 -36.5q-157 0 -240 104 t-83 268zM213 360q0 -124 56 -198t167 -74q81 0 165.5 43.5t146.5 108.5l108 610q-38 24 -101 40.5t-124 16.5q-103 0 -185.5 -51.5t-131.5 -133.5t-75 -175.5t-26 -186.5z" />
<glyph unicode="r" horiz-adv-x="600" d="M68 39l161 922q6 28 33 28h70q22 0 22 -20q0 -3 -18 -109q57 75 130 113.5t148 38.5q25 0 39 -4q13 -4 13 -14q0 -4 -2 -9l-23 -70q-5 -16 -23 -16q-8 0 -25 2t-26 2q-124 0 -248 -158l-124 -716q-6 -29 -31 -29h-74q-23 0 -23 28q0 5 1 11z" />
<glyph unicode="s" horiz-adv-x="776" d="M20 57q0 4 5 19l24 49q5 12 17 12q8 0 24 -8q116 -51 207 -51q101 0 179.5 57.5t78.5 153.5q0 42 -23 75t-59.5 55t-81 41.5t-89 41t-81 47.5t-59.5 67t-23 93q0 94 55.5 165t137 104.5t172.5 33.5q139 0 233 -51q11 -7 11 -15t-5 -18l-20 -49q-6 -15 -16 -15 q-12 0 -27 6q-95 43 -184 43q-90 0 -158 -48t-68 -134q0 -38 22.5 -68.5t59 -51t80.5 -39.5t88 -41.5t80.5 -49.5t59 -70t22.5 -98q0 -64 -27 -123t-76.5 -106t-128 -75.5t-174.5 -28.5q-63 0 -131 18t-114 43q-11 5 -11 16z" />
<glyph unicode="t" horiz-adv-x="671" d="M102 920l11 49q3 20 24 20h121l43 248q6 26 31 29q60 10 78 10q19 0 22 -10t-2 -25l-45 -252h244q21 0 18 -18l-8 -49q-3 -23 -27 -23h-241l-99 -545q-18 -98 -18 -157q0 -61 32.5 -86t94.5 -25t137 20q19 4 19 -12l2 -53q0 -13 -6.5 -20.5t-26.5 -14.5q-77 -26 -164 -26 q-219 0 -219 194q0 54 20 172l99 553h-117q-11 0 -17.5 5.5t-5.5 15.5z" />
<glyph unicode="u" horiz-adv-x="1058" d="M106 229q0 27 13 111l108 623q6 26 31 26h76q12 0 18 -7.5t4 -18.5l-106 -594q-10 -51 -10 -115q0 -166 178 -166q76 0 162 42t153 101l129 730q6 28 33 28h74q14 -1 18 -7q3 -4 3 -11q0 -4 -1 -8l-164 -932q-6 -31 -30 -31h-74q-10 0 -16.5 8t-4.5 17l17 92 q-170 -140 -355 -140q-119 0 -187.5 66.5t-68.5 185.5z" />
<glyph unicode="v" horiz-adv-x="886" d="M127 978q4 10 25 11h88q23 0 26 -22l90 -586q7 -47 14 -98t12 -86.5t5 -36.5h2q1 2 14.5 33.5t36.5 81.5t47 98l295 592q11 24 39 24h70q20 0 20 -14t-10 -31l-489 -926q-9 -18 -31 -18h-62q-25 0 -28 18l-162 936q-4 8 -4 16q0 4 2 8z" />
<glyph unicode="w" horiz-adv-x="1376" d="M127 963q-3 26 25 26h77q28 0 31 -22l72 -811h2l371 811q11 22 38 22h56q23 0 26 -20l88 -813h5l358 809q9 24 39 24h71q15 0 15 -12q0 -9 -10 -29l-439 -928q-9 -20 -32 -20h-76q-22 0 -25 23l-88 778h-2l-362 -781q-9 -20 -33 -20h-72q-26 0 -29 20z" />
<glyph unicode="x" horiz-adv-x="917" d="M-16 10q0 13 10 23l409 483l-204 447q-2 4 -2 10q0 16 20 16h92q27 0 37 -24l152 -347h2l280 349q16 22 41 22h84q13 0 13 -10q0 -9 -7 -16l-370 -435l231 -495q4 -12 4 -17q0 -16 -22 -16h-97q-16 0 -23.5 5t-12.5 18l-172 403l-3 -2l-323 -401q-17 -23 -47 -23h-84 q-8 0 -8 10z" />
<glyph unicode="y" horiz-adv-x="940" d="M-127 -408l16 52q5 18 23 18q12 0 35 -3t35 -3q175 0 270 172l82 147l-182 983q-5 14 -1 22.5t21 8.5h90q26 0 29 -24l137 -832l420 830q13 26 43 26h78q16 0 16 -12q0 -6 -4 -14l-578 -1082q-97 -184 -195 -257t-251 -73q-28 0 -72 7q-15 3 -15 18q0 7 3 16z" />
<glyph unicode="z" horiz-adv-x="794" d="M-18 20l6 33q5 23 24 51l631 793v2h-442q-13 0 -18 4t-3 15l8 49q4 22 27 22h576q13 0 17 -5q2 -3 2 -9q0 -3 -1 -8l-6 -31q-3 -18 -23 -43l-639 -799v-4h500q13 0 16.5 -4.5t1.5 -15.5l-8 -50q-3 -20 -26 -20h-621q-12 0 -18 4q-4 3 -5 11q0 2 1 5z" />
<glyph unicode="{" horiz-adv-x="659" d="M55 571l6 29q3 21 25 23q118 18 158 223l63 321q25 130 111 200.5t198 70.5h111q12 0 14.5 -3t-0.5 -14l-14 -53q-5 -16 -22 -16h-93q-44 0 -79 -19.5t-56 -51t-32.5 -60.5t-16.5 -58l-55 -278q-25 -132 -80.5 -212.5t-128.5 -86.5v-2q150 -13 102 -312l-43 -266 q-3 -23 -3.5 -45.5t5.5 -49t18 -46.5t37.5 -33.5t61.5 -13.5h86q13 0 18 -5t3 -14l-7 -45q-3 -22 -22 -22h-105q-119 0 -177.5 68.5t-37.5 201.5l50 309q20 107 3.5 167t-75.5 69q-17 3 -21.5 8t-1.5 16z" />
<glyph unicode="|" horiz-adv-x="387" d="M131 -2v1415q0 20 5.5 28.5t21.5 8.5h65q19 0 26 -6.5t7 -26.5v-1419q0 -37 -33 -37h-59q-33 0 -33 37z" />
<glyph unicode="}" horiz-adv-x="659" d="M-82.5 -264q-2.5 4 0.5 14l14 51q6 17 23 17h92q44 0 79 19.5t56 50.5t32.5 60t16.5 58l54 279q25 131 81.5 212t129.5 87v2q-151 13 -103 311l43 266q3 23 3.5 45.5t-5.5 49.5t-18 47t-37.5 33.5t-61.5 13.5h-86q-13 0 -17.5 4.5t-2.5 13.5l6 45q3 23 23 23h104 q119 0 176.5 -69t36.5 -202l-47 -307q-11 -72 -9.5 -122t21.5 -78.5t60 -34.5q28 -5 22 -27l-6 -27q-3 -21 -27 -24q-116 -18 -155 -221l-64 -324q-25 -130 -110.5 -200t-198.5 -70h-111q-12 0 -14.5 4z" />
<glyph unicode="~" horiz-adv-x="1064" d="M137 569q0 15 27 31q139 92 233 92q53 0 107 -26t102.5 -52t87.5 -26q47 0 172 84q11 8 21 8q13 0 20 -12l23 -35q2 -4 2 -10q0 -15 -14 -25q-75 -59 -133 -89t-121 -30q-37 0 -75 16.5t-65 37t-65 37t-76 16.5q-59 0 -188 -76q-16 -8 -21 -8q-10 0 -16 14l-19 45 q-2 2 -2 8z" />
<glyph unicode="&#xa1;" horiz-adv-x="473" d="M41 -399l207 1063q6 22 24 22h58q18 0 18 -16q0 -7 -2 -11l-170 -1058q-3 -23 -24 -23h-93q-18 0 -18 14v9zM254 905q0 44 32 75.5t74 31.5q33 0 55.5 -21t22.5 -53q0 -44 -31.5 -74t-76.5 -30q-32 0 -54 19t-22 52z" />
<glyph unicode="&#xa2;" d="M152 367q0 154 60 292.5t177 234.5t266 114l31 168q6 28 27 28h30q23 0 19 -28l-29 -164q124 -3 219 -58q15 -9 15 -16q0 -6 -6 -18l-25 -54q-5 -12 -18 -12q-4 0 -29 10q-95 45 -172 45h-2l-148 -827q94 3 199 41q24 8 27 8q11 0 14 -12l8 -49q0 -1 1 -3.5t1 -3.5 q0 -14 -29 -26q-113 -51 -237 -57l-29 -156q-3 -16 -8.5 -21.5t-19.5 -5.5h-27q-25 0 -21 31l27 154q-162 13 -241.5 113t-79.5 272zM289 367q0 -108 51 -185t152 -96l145 815q-84 -17 -152 -70.5t-110 -128t-64 -160.5t-22 -175z" />
<glyph unicode="&#xa3;" d="M23 20v7l8 45q3 13 8.5 18.5t21.5 13.5q166 80 209 312l17 94h-117q-18 0 -18 14v8l6 33q3 13 8.5 17t17.5 4h115l25 141h-117q-17 0 -17 12v9l7 32q3 14 7 18.5t17 4.5h117l35 194q37 205 149.5 321t298.5 116q142 0 230 -43q14 -8 14 -21q0 -8 -2 -12l-25 -55 q-8 -17 -22 -17q-8 0 -12 2q-98 37 -191 37q-67 0 -121 -25.5t-89.5 -70.5t-58 -100t-34.5 -121l-37 -205h328q20 0 20 -17v-6l-4 -32q-2 -21 -29 -21h-329l-25 -141h330q20 0 20 -13v-8l-6 -33q-3 -22 -28 -22h-330l-31 -164q-14 -72 -56.5 -134.5t-105.5 -96.5v-2h613 q30 0 30 -21v-6l-10 -59q-6 -27 -35 -27h-780q-22 0 -22 20z" />
<glyph unicode="&#xa4;" d="M129 401q-18 24 6 43l125 105q-16 43 -16 92q0 114 71 217l-84 107q-15 20 11 43l34 28q26 20 43 0l76 -94q97 78 217 78t185 -74l112 94q26 20 43 0l23 -28q18 -24 -6 -43l-125 -105q16 -43 16 -92q0 -113 -72 -217l84 -106q15 -20 -10 -43l-35 -29q-26 -20 -43 0 l-75 94q-97 -78 -217 -78t-185 74l-112 -94q-26 -20 -43 0zM352 645q0 -71 39 -112t119 -41q106 0 174 81t68 195q0 71 -39 112.5t-119 41.5q-106 0 -174 -81.5t-68 -195.5z" />
<glyph unicode="&#xa5;" d="M188 348q0 2 1 6t1 6l5 33q2 12 7.5 16.5t18.5 4.5h219l23 118h-221q-19 0 -19 15v8l6 35q3 22 27 22h190l-251 766q-2 4 -2 13q0 20 26 20h84q34 0 43 -27l217 -702h2l447 698q17 31 49 31h74q20 0 20 -14q0 -9 -6 -15l-510 -770h190q21 0 21 -14v-8l-6 -37 q-2 -21 -29 -21h-215l-20 -118h217q20 0 20 -13v-8l-6 -35q-3 -13 -9 -17.5t-20 -4.5h-217l-53 -305q-6 -31 -35 -31h-78q-26 0 -26 20v11l53 305h-219q-19 0 -19 12z" />
<glyph unicode="&#xa6;" horiz-adv-x="397" d="M16 -12q0 1 1 7t1 7l80 463q6 29 31 29h68q21 0 18 -23q0 -1 -1 -8t-1 -8l-82 -463q-6 -29 -29 -29h-65q-24 0 -21 25zM184 944q0 1 1 8.5t1 8.5l82 462q5 27 29 27h68q23 0 20 -23q0 -1 -2 -7t-2 -7l-82 -463q-6 -28 -29 -28h-63q-11 0 -17.5 5.5t-5.5 16.5z" />
<glyph unicode="&#xa7;" horiz-adv-x="927" d="M49 61l31 62q11 19 31 10q113 -55 217 -55q61 0 116 21t91 59q51 54 51 131q0 59 -36.5 96t-100.5 64l-125 55q-156 71 -156 209q0 79 48 147t122 105q-94 69 -94 168q0 125 96 208q53 45 124.5 69t145.5 24q134 0 234 -50q14 -7 8 -22l-29 -62q-10 -20 -35 -8 q-95 43 -188 43q-85 0 -143 -37q-80 -49 -80 -145q0 -47 27.5 -78.5t82.5 -56.5l138 -64q73 -33 117 -88t44 -129q0 -77 -40.5 -149t-106.5 -115q72 -66 72 -162q0 -127 -97 -217q-57 -56 -138 -85t-169 -29q-132 0 -248 59q-17 8 -10 22zM297 741q-1 -52 28.5 -85t90.5 -62 l106 -49q14 -5 29 -17q51 27 82.5 73.5t32.5 100.5q1 58 -37 97t-107 71l-84 39q-63 -19 -101.5 -63t-39.5 -105z" />
<glyph unicode="&#xa8;" horiz-adv-x="638" d="M68 1255q0 41 30 69t72 28q31 0 51.5 -17t20.5 -47q0 -40 -30.5 -71t-70.5 -31q-30 0 -51.5 19.5t-21.5 49.5zM401 1255q0 42 31 69.5t72 27.5q30 0 49.5 -17t19.5 -47q0 -40 -29.5 -71t-68.5 -31q-30 0 -52 19.5t-22 49.5z" />
<glyph unicode="&#xa9;" horiz-adv-x="1658" d="M92 588q0 165 73 322.5t191.5 272.5t277 185t322.5 70q172 0 310.5 -75.5t218.5 -212t80 -308.5q0 -164 -73 -321.5t-191.5 -272.5t-277 -185.5t-321.5 -70.5q-173 0 -312 75t-218.5 211.5t-79.5 309.5zM193 602q0 -226 149.5 -372t376.5 -146q191 0 364 103.5t278 276 t105 363.5q0 226 -149.5 372.5t-376.5 146.5q-143 0 -280.5 -62t-239.5 -163t-164.5 -238.5t-62.5 -280.5zM504 602q0 106 35 205.5t102 175.5q122 139 295 139q120 0 194 -49q11 -8 5 -20l-23 -39q-8 -17 -20 -8q-65 45 -156 45q-142 0 -236 -119q-104 -130 -104 -322 q0 -108 52.5 -178t160.5 -70q86 0 182 44q16 8 19 -7l8 -37q2 -9 -1 -13.5t-13 -8.5q-107 -49 -220 -49q-141 0 -210.5 86t-69.5 225z" />
<glyph unicode="&#xaa;" horiz-adv-x="628" d="M59 950q0 72 46 125t116 80q93 35 225 35l9 47q4 24 4 35q0 90 -94 90q-84 0 -166 -39q-14 -7 -23 -10h-4q-5 0 -8 8l-10 37q0 1 -1 4t-1 4q0 7 12 14q3 1 4 2q96 52 213 52q84 0 128 -33.5t44 -97.5q0 -13 -4 -37l-70 -414q-3 -16 -6 -20.5t-12 -4.5h-55q-8 0 -13 2.5 t-4 8.5l6 49q-36 -29 -88 -50.5t-96 -21.5q-80 0 -121 47q-31 36 -31 88zM162 971q0 -37 24 -58.5t62 -21.5q37 0 80 18.5t75 46.5l29 170q-43 0 -87.5 -8.5t-87 -25.5t-69 -48.5t-26.5 -72.5z" />
<glyph unicode="&#xab;" horiz-adv-x="921" d="M154 459q0 20 20 43l262 293q14 14 21 14q2 0 10 -4l29 -19q8 -5 8 -16q0 -8 -4 -12l-219 -289l112 -299q2 -4 2 -10q0 -14 -14 -21l-31 -18q-6 -4 -14 -4q-13 0 -19 14l-153 293q-10 20 -10 35zM489 459q0 19 21 43l262 293q14 14 21 14q2 0 10 -4l28 -19q9 -6 9 -16 q0 -8 -4 -12l-220 -289l113 -299q2 -4 2 -10q0 -14 -14 -21l-31 -18q-6 -4 -14 -4q-13 0 -19 14l-153 293q-11 22 -11 35z" />
<glyph unicode="&#xac;" horiz-adv-x="1030" d="M176 741l10 60q3 22 31 22h703q18 0 22.5 -4.5t1.5 -21.5l-63 -361q-3 -17 -9.5 -23.5t-21.5 -6.5h-55q-27 0 -21 30l49 281h-624q-26 0 -23 24z" />
<glyph unicode="&#xad;" horiz-adv-x="557" d="M98 494v6l13 69q6 27 32 27h283q33 0 33 -21v-6l-10 -67q-3 -16 -11.5 -21.5t-25.5 -5.5h-287q-27 0 -27 19z" />
<glyph unicode="&#xae;" horiz-adv-x="1658" d="M92 588q0 165 73 322.5t191.5 272.5t277 185t322.5 70q172 0 310.5 -75.5t218.5 -212t80 -308.5q0 -164 -73 -321.5t-191.5 -272.5t-277 -185.5t-321.5 -70.5q-173 0 -312 75t-218.5 211.5t-79.5 309.5zM193 602q0 -226 149.5 -372t376.5 -146q191 0 364 103.5t278 276 t105 363.5q0 226 -149.5 372.5t-376.5 146.5q-143 0 -280.5 -62t-239.5 -163t-164.5 -238.5t-62.5 -280.5zM557 317l137 773q3 20 21 20h145q258 0 258 -176q0 -103 -62 -185.5t-153 -101.5l131 -323q8 -21 -10 -21h-61q-16 0 -21 14l-121 322h-123l-57 -322q-3 -14 -16 -14 h-56q-15 0 -12 14zM709 702h96q9 0 49 5q83 13 130.5 71t47.5 142q0 68 -45 97.5t-131 29.5h-86z" />
<glyph unicode="&#xaf;" horiz-adv-x="638" d="M70 1260q0 2 1 6.5t1 7.5l6 26q3 19 11 25t28 6h428q28 0 28 -18q0 -2 -1 -6.5t-1 -6.5l-6 -26q-3 -21 -12 -28t-29 -7h-426q-28 0 -28 21z" />
<glyph unicode="&#xb0;" horiz-adv-x="567" d="M86 1208q0 90 67 158t156 68q70 0 120 -45.5t50 -114.5q0 -91 -67 -158t-156 -67q-71 0 -120.5 45t-49.5 114zM160 1214q0 -44 29 -71t73 -27q55 0 99.5 47.5t44.5 104.5q0 42 -31 70t-74 28q-55 0 -98 -47t-43 -105z" />
<glyph unicode="&#xb1;" horiz-adv-x="1015" d="M84 57l10 66q3 27 29 27h612q15 0 20.5 -6t2.5 -21l-10 -66q-6 -26 -33 -26h-611q-23 0 -20 26zM123 717l10 55q6 29 33 29h323l58 323q5 29 33 29h55q17 0 23.5 -5.5t3.5 -21.5l-60 -325h320q32 0 26 -27l-10 -53q-5 -31 -31 -31h-323l-58 -323q-3 -16 -10 -21.5 t-20 -5.5h-62q-14 0 -18.5 6t-1.5 21l57 323h-321q-30 0 -27 27z" />
<glyph unicode="&#xb2;" horiz-adv-x="677" d="M74 686v6l6 37q3 14 18 29q18 17 82.5 74.5t113.5 104t89 89.5q111 117 129 197q4 12 4 43q0 45 -28 71.5t-76 26.5q-68 0 -148 -41q-12 -6 -20 -6q-9 0 -15 14l-10 27q-2 4 -2 10q0 11 21 25q92 53 200 53q81 0 133 -42t52 -118q0 -22 -13 -76q-18 -65 -67.5 -131 t-147.5 -161q-71 -69 -184 -168h289q26 0 26 -17v-4l-10 -41q-3 -20 -29 -20h-385q-28 0 -28 18z" />
<glyph unicode="&#xb3;" horiz-adv-x="677" d="M78 713q0 6 2 8l16 41q3 10 19 10q6 0 14 -4q59 -25 127 -25q65 0 113 35.5t65 98.5q6 21 6 47q0 60 -41 90t-108 30h-23q-20 0 -20 19v6q2 31 4 33q3 20 22 20h31q79 0 124.5 41.5t45.5 118.5q0 88 -108 88q-53 0 -119 -29q-16 -8 -27 -8q-9 0 -12 10l-10 37v4 q0 15 24 27q74 39 174 39q76 0 128.5 -41.5t52.5 -112.5q0 -63 -41.5 -122.5t-100.5 -86.5q50 -18 76.5 -61.5t26.5 -95.5q0 -25 -7 -53q-23 -96 -104 -155.5t-178 -59.5q-90 0 -158 30q-14 7 -14 21z" />
<glyph unicode="&#xb4;" horiz-adv-x="638" d="M180 1208q0 6 8 11l240 211q6 6 12 6q8 0 23 -15l49 -61q4 -8 4 -12q0 -12 -10 -19l-270 -172q-8 -4 -13 -4q-7 0 -14 10l-23 33q-6 6 -6 12z" />
<glyph unicode="&#xb6;" horiz-adv-x="1036" d="M197 1036q0 146 111.5 260.5t256.5 114.5h416q26 0 20 -29l-288 -1644q-3 -27 -25 -27h-55q-24 0 -21 27l279 1579h-199l-278 -1577q-4 -29 -29 -29h-78q-26 0 -20 29l182 1038q-125 6 -198.5 77t-73.5 181z" />
<glyph unicode="&#xb7;" horiz-adv-x="421" d="M117 582q0 46 34.5 78t81.5 32q35 0 58.5 -20t23.5 -54q0 -45 -34.5 -80.5t-79.5 -35.5q-35 0 -59.5 22.5t-24.5 57.5z" />
<glyph unicode="&#xb8;" horiz-adv-x="638" d="M174 -358l10 26q6 16 29 6q46 -16 88 -16q67 0 102 47q21 28 21 64q0 69 -119 69h-26q-32 0 -25 33q1 4 4 14t4 17l27 110l69 -4l-26 -112h22q68 0 112 -27t44 -86q0 -69 -45 -117q-63 -69 -172 -69q-50 0 -105 20q-21 6 -14 25z" />
<glyph unicode="&#xb9;" horiz-adv-x="677" d="M162 1286q-9 17 14 31l207 123q15 10 41 10h37q18 0 20 -12.5t-2 -24.5l-121 -678q-3 -16 -10.5 -22t-21.5 -6h-43q-31 0 -23 41l105 591l-150 -88q-16 -8 -20 -8q-11 0 -19 14z" />
<glyph unicode="&#xba;" horiz-adv-x="688" d="M76 1036q0 97 36.5 186.5t113 150.5t175.5 61q105 0 160 -65t55 -169q0 -97 -35.5 -184.5t-111 -147t-176.5 -59.5q-107 0 -162 61.5t-55 165.5zM172 1042q0 -163 129 -163q55 0 98.5 31t68.5 80t37.5 102t12.5 104q0 73 -30.5 119.5t-98.5 46.5q-54 0 -97.5 -31.5 t-68.5 -81t-38 -103.5t-13 -104z" />
<glyph unicode="&#xbb;" horiz-adv-x="921" d="M82 154q0 8 4 12l219 289l-112 299q-3 6 -3 10q0 12 15 20l31 19q9 6 14 6q12 0 18 -16l154 -293q10 -20 10 -35q0 -20 -20 -43l-262 -293q-12 -12 -21 -12q-6 0 -10 2l-29 18q-8 5 -8 17zM418 154q0 8 4 12l219 289l-113 299q-2 4 -2 10q0 12 15 20l30 19q9 6 15 6 q12 0 18 -16l154 -293q10 -20 10 -35q0 -20 -20 -43l-263 -293q-12 -12 -20 -12q-6 0 -10 2l-29 18q-8 5 -8 17z" />
<glyph unicode="&#xbc;" horiz-adv-x="1492" d="M82 -45q0 8 6 14l1122 1469q17 23 26.5 29t31.5 6h67q17 0 17 -11q0 -6 -9 -20l-1122 -1473q-20 -26 -43 -26h-78q-18 0 -18 12zM199 1294q0 13 16 23l207 123q15 10 41 10h37q20 0 20 -20q0 -2 -1 -8t-1 -9l-121 -678q-3 -16 -10.5 -22t-21.5 -6h-43q-25 0 -25 22 q0 13 2 19l104 591l-149 -88q-16 -8 -21 -8q-10 0 -18 14l-14 29q-2 2 -2 8zM823 168v25q0 21 21 51l272 442q16 29 37 29h49q25 0 25 -13q0 -9 -10 -26l-265 -434h230l28 145q5 35 29 35h55q19 0 19 -16q0 -5 -4 -25l-70 -377q-3 -14 -9.5 -18t-19.5 -4h-49q-24 0 -24 20 q0 2 1 6.5t1 7.5l26 136h-317q-25 0 -25 16z" />
<glyph unicode="&#xbd;" horiz-adv-x="1492" d="M82 -45q0 8 6 14l1122 1469q17 23 26.5 29t31.5 6h67q17 0 17 -11q0 -6 -9 -20l-1122 -1473q-20 -26 -43 -26h-78q-18 0 -18 12zM199 1294q0 13 16 23l207 123q15 10 41 10h37q20 0 20 -20q0 -2 -1 -8t-1 -9l-121 -678q-3 -16 -10.5 -22t-21.5 -6h-43q-25 0 -25 22 q0 13 2 19l104 591l-149 -88q-16 -8 -21 -8q-10 0 -18 14l-14 29q-2 2 -2 8zM840 18v7l6 36q3 14 18 29q18 17 82.5 74.5t113.5 104t89 89.5q111 117 129 197q2 6 2 18q2 8 2 25q0 45 -28 71.5t-76 26.5q-68 0 -148 -41q-12 -6 -20 -6q-9 0 -15 15l-10 26q-2 4 -2 10 q0 11 21 25q92 53 200 53q81 0 133 -42t52 -118q0 -14 -3 -26q-2 -18 -10 -49q-18 -65 -68 -132t-147 -161q-71 -69 -184 -168h289q26 0 26 -16v-5l-10 -41q-3 -20 -29 -20h-385q-28 0 -28 18z" />
<glyph unicode="&#xbe;" horiz-adv-x="1492" d="M78 713q0 6 2 8l16 41q3 10 19 10q6 0 14 -4q59 -25 127 -25q65 0 113 35.5t65 98.5q1 4 2 11t2 11q2 8 2 25q0 60 -41 90t-108 30h-23q-20 0 -20 19v6q2 31 4 33q3 20 22 20h31q79 0 124.5 41.5t45.5 118.5q0 88 -108 88q-53 0 -119 -29q-16 -8 -27 -8q-9 0 -12 10 l-10 37v4q0 15 24 27q74 39 174 39q76 0 128.5 -41.5t52.5 -112.5q0 -63 -41.5 -122.5t-100.5 -86.5q50 -18 76.5 -61.5t26.5 -95.5q0 -3 -1 -11t-1 -12q-1 -5 -2.5 -15t-2.5 -15q-23 -96 -104 -155.5t-178 -59.5q-90 0 -158 30q-14 7 -14 21zM82 -45q0 8 6 14l1122 1469 q17 23 26.5 29t31.5 6h67q17 0 17 -11q0 -6 -9 -20l-1122 -1473q-20 -26 -43 -26h-78q-18 0 -18 12zM823 168v25q0 21 21 51l272 442q16 29 37 29h49q25 0 25 -13q0 -9 -10 -26l-265 -434h230l28 145q5 35 29 35h55q19 0 19 -16q0 -5 -4 -25l-70 -377q-3 -14 -9.5 -18 t-19.5 -4h-49q-24 0 -24 20q0 2 1 6.5t1 7.5l26 136h-317q-25 0 -25 16z" />
<glyph unicode="&#xbf;" horiz-adv-x="833" d="M123 -195q0 176 143 312l146 137q11 11 37.5 35.5t38.5 36t33 33.5t33 38.5t26 39t24 46.5q25 63 29 107q4 26 24 26h64q11 0 14.5 -4t3.5 -14q0 -15 -4 -35q-8 -59 -27.5 -108.5t-56 -96t-61.5 -72t-78 -75.5l-164 -152q-104 -94 -104 -229q0 -83 57.5 -127.5 t142.5 -44.5q112 0 232 63l14 7q12 0 15 -13l16 -57v-4q0 -11 -21 -23q-62 -34 -142.5 -54.5t-154.5 -20.5q-122 0 -201 65t-79 184zM651 905q0 42 34.5 74.5t76.5 32.5q33 0 54.5 -20t21.5 -52q0 -44 -33 -75t-76 -31q-33 0 -55.5 19t-22.5 52z" />
<glyph unicode="&#xc0;" horiz-adv-x="1193" d="M-92 10q0 11 4 17l737 1357q13 27 35 27h82q23 0 27 -25l249 -1351q4 -35 -20 -35h-104q-15 0 -21 5.5t-8 19.5l-68 409h-551l-219 -414q-11 -20 -33 -20h-92q-18 0 -18 10zM324 543h479l-86 516q-17 99 -27 178h-4q-10 -31 -90 -180zM563 1696q0 8 4 12l49 61 q11 15 23 15q6 0 12 -6l240 -211q6 -6 6 -11q0 -8 -4 -12l-23 -33q-7 -10 -16 -10q-2 0 -10 4l-271 172q-10 5 -10 19z" />
<glyph unicode="&#xc1;" horiz-adv-x="1193" d="M-92 10q0 11 4 17l737 1357q13 27 35 27h82q23 0 27 -25l249 -1351q4 -35 -20 -35h-104q-15 0 -21 5.5t-8 19.5l-68 409h-551l-219 -414q-11 -20 -33 -20h-92q-18 0 -18 10zM324 543h479l-86 516q-17 99 -27 178h-4q-10 -31 -90 -180zM596 1556q0 6 8 11l240 211 q6 6 12 6q8 0 23 -15l49 -61q4 -8 4 -12q0 -12 -10 -19l-271 -172q-8 -4 -12 -4q-7 0 -14 10l-23 33q-6 6 -6 12z" />
<glyph unicode="&#xc2;" horiz-adv-x="1193" d="M-92 10q0 11 4 17l737 1357q13 27 35 27h82q23 0 27 -25l249 -1351q4 -35 -20 -35h-104q-15 0 -21 5.5t-8 19.5l-68 409h-551l-219 -414q-11 -20 -33 -20h-92q-18 0 -18 10zM324 543h479l-86 516q-17 99 -27 178h-4q-10 -31 -90 -180zM500 1536q0 12 10 20l235 216 q10 10 29 10h29q15 0 22 -10l158 -211q8 -12 8 -17q0 -4 -4 -8l-33 -27q-4 -4 -10 -4q-7 0 -18 11l-158 151l-217 -162q-9 -6 -14 -6q-7 0 -11 4l-22 23q-4 4 -4 10z" />
<glyph unicode="&#xc3;" horiz-adv-x="1193" d="M-92 10q0 11 4 17l737 1357q13 27 35 27h82q23 0 27 -25l249 -1351q4 -35 -20 -35h-104q-15 0 -21 5.5t-8 19.5l-68 409h-551l-219 -414q-11 -20 -33 -20h-92q-18 0 -18 10zM324 543h479l-86 516q-17 99 -27 178h-4q-10 -31 -90 -180zM457 1593q0 13 18 25 q46 31 104 55.5t95 24.5q34 0 70 -23t69.5 -46t60.5 -23q29 0 73.5 24.5t80.5 52.5l10 5q12 0 21 -15l18 -28q6 -9 6 -17q0 -6 -14 -20q-126 -103 -213 -103q-31 0 -64.5 23t-67.5 46t-67 23q-47 0 -153 -65q-8 -4 -10 -4q-11 0 -17 14l-16 37q-4 8 -4 14z" />
<glyph unicode="&#xc4;" horiz-adv-x="1193" d="M-92 10q0 11 4 17l737 1357q13 27 35 27h82q23 0 27 -25l249 -1351q4 -35 -20 -35h-104q-15 0 -21 5.5t-8 19.5l-68 409h-551l-219 -414q-11 -20 -33 -20h-92q-18 0 -18 10zM324 543h479l-86 516q-17 99 -27 178h-4q-10 -31 -90 -180zM500 1604q0 41 30 68.5t72 27.5 q31 0 51.5 -17t20.5 -47q0 -40 -30.5 -71t-70.5 -31q-30 0 -51.5 20t-21.5 50zM834 1604q0 42 30.5 69t71.5 27q30 0 50 -17t20 -47q0 -40 -30 -71t-69 -31q-30 0 -51.5 20t-21.5 50z" />
<glyph unicode="&#xc5;" horiz-adv-x="1193" d="M-92 10q0 11 4 17l737 1357q13 27 35 27h82q23 0 27 -25l249 -1351q4 -35 -20 -35h-104q-15 0 -21 5.5t-8 19.5l-68 409h-551l-219 -414q-11 -20 -33 -20h-92q-18 0 -18 10zM324 543h479l-86 516q-17 99 -27 178h-4q-10 -31 -90 -180zM600 1657q0 77 63.5 136.5 t141.5 59.5q62 0 101.5 -39t39.5 -100q0 -78 -61.5 -139.5t-139.5 -61.5q-60 0 -102.5 41.5t-42.5 102.5zM684 1669q0 -32 21.5 -52t54.5 -20q41 0 72.5 31t31.5 72q0 32 -20.5 52t-52.5 20q-42 0 -74.5 -30.5t-32.5 -72.5z" />
<glyph unicode="&#xc6;" horiz-adv-x="1755" d="M-94 12q0 9 8 21l1057 1331q21 26 37.5 36.5t42.5 10.5h696q25 0 25 -16q0 -1 -1.5 -4t-1.5 -5l-18 -61q-7 -25 -41 -25h-551l-90 -503h490q24 0 24 -17v-6l-10 -59q-6 -27 -33 -27h-489l-103 -579h572q22 0 22 -19v-8l-8 -53q-2 -12 -11 -20.5t-22 -8.5h-674 q-30 0 -30 23v10l69 399h-489l-318 -403q-22 -29 -45 -29h-94q-14 0 -14 12zM457 537h428l125 708z" />
<glyph unicode="&#xc7;" horiz-adv-x="1155" d="M82 516q0 130 32.5 260.5t98 248.5t155 209.5t213 145.5t261.5 54q206 0 340 -88q12 -9 12 -17q0 -4 -4 -12l-41 -70q-8 -12 -19 -12h-6q-3 1 -6 3t-6.5 5t-5.5 4q-119 70 -270 70q-94 0 -179 -34t-149.5 -92t-116.5 -134.5t-85 -163t-50.5 -176t-17.5 -174.5 q0 -95 20.5 -173.5t63.5 -141t118 -97.5t176 -35q143 0 306 68q14 7 26 10q1 0 3 1t3 1q14 0 17 -16l14 -64q0 -1 1 -3t1 -3q0 -17 -29 -29q-185 -84 -380 -81h-13l-20 -84h22q68 0 112 -27.5t44 -85.5q0 -69 -45 -117q-63 -69 -172 -69q-50 0 -105 20q-18 7 -18 14t2 11 l12 26q3 8 13 8t14 -2q50 -16 90 -16q67 0 102 47q21 28 21 64q0 69 -119 69h-26q-27 0 -27 23q0 2 1 5t1 5q1 4 4 14t4 17l21 82q-204 24 -309 166t-105 366z" />
<glyph unicode="&#xc8;" horiz-adv-x="1003" d="M53 35l236 1339q6 37 43 37h674q25 0 18 -25l-18 -65q-9 -23 -39 -23h-553l-88 -505h485q15 0 22.5 -6.5t4.5 -18.5l-13 -61q-6 -27 -32 -27h-488l-100 -565h573q31 0 25 -25l-12 -63q-6 -27 -35 -27h-674q-19 0 -25.5 7t-3.5 28zM530 1696q0 7 5 12l49 61q11 15 22 15 q6 0 12 -6l240 -211q6 -6 6 -11q0 -8 -4 -12l-22 -33q-7 -10 -17 -10q-2 0 -10 4l-270 172q-11 5 -11 19z" />
<glyph unicode="&#xc9;" horiz-adv-x="1003" d="M53 35l236 1339q6 37 43 37h674q25 0 18 -25l-18 -65q-9 -23 -39 -23h-553l-88 -505h485q15 0 22.5 -6.5t4.5 -18.5l-13 -61q-6 -27 -32 -27h-488l-100 -565h573q31 0 25 -25l-12 -63q-6 -27 -35 -27h-674q-19 0 -25.5 7t-3.5 28zM563 1556q0 6 8 11l240 211q6 6 12 6 q8 0 23 -15l49 -61q4 -8 4 -12q0 -12 -10 -19l-271 -172q-8 -4 -12 -4q-7 0 -14 10l-23 33q-6 6 -6 12z" />
<glyph unicode="&#xca;" horiz-adv-x="1003" d="M53 35l236 1339q6 37 43 37h674q25 0 18 -25l-18 -65q-9 -23 -39 -23h-553l-88 -505h485q15 0 22.5 -6.5t4.5 -18.5l-13 -61q-6 -27 -32 -27h-488l-100 -565h573q31 0 25 -25l-12 -63q-6 -27 -35 -27h-674q-19 0 -25.5 7t-3.5 28zM446 1536q0 12 11 20l235 216 q10 10 29 10h29q14 0 22 -10l158 -211q8 -12 8 -17q0 -4 -4 -8l-33 -27q-4 -4 -10 -4q-8 0 -19 11l-157 151l-217 -162q-9 -6 -15 -6t-10 4l-22 23q-5 5 -5 10z" />
<glyph unicode="&#xcb;" horiz-adv-x="1003" d="M53 35l236 1339q6 37 43 37h674q25 0 18 -25l-18 -65q-9 -23 -39 -23h-553l-88 -505h485q15 0 22.5 -6.5t4.5 -18.5l-13 -61q-6 -27 -32 -27h-488l-100 -565h573q31 0 25 -25l-12 -63q-6 -27 -35 -27h-674q-19 0 -25.5 7t-3.5 28zM459 1604q0 41 30 68.5t72 27.5 q31 0 51.5 -17t20.5 -47q0 -40 -30.5 -71t-70.5 -31q-30 0 -51.5 20t-21.5 50zM793 1604q0 42 30.5 69t71.5 27q30 0 50 -17t20 -47q0 -40 -30 -71t-69 -31q-30 0 -51.5 20t-21.5 50z" />
<glyph unicode="&#xcc;" horiz-adv-x="724" d="M23 20l8 54q3 20 26 20h127l215 1223h-135q-13 0 -16.5 5t-1.5 17l10 52q3 20 25 20h407q24 0 21 -20l-9 -50q-3 -24 -26 -24h-137l-215 -1223h137q13 0 16 -6.5t0 -15.5l-10 -52q-3 -20 -25 -20h-399q-21 0 -18 20zM352 1696q0 8 4 12l50 61q11 15 22 15q6 0 12 -6 l240 -211q6 -6 6 -11q0 -8 -4 -12l-23 -33q-7 -10 -16 -10q-2 0 -10 4l-271 172q-10 5 -10 19z" />
<glyph unicode="&#xcd;" horiz-adv-x="724" d="M23 20l8 54q3 20 26 20h127l215 1223h-135q-13 0 -16.5 5t-1.5 17l10 52q3 20 25 20h407q24 0 21 -20l-9 -50q-3 -24 -26 -24h-137l-215 -1223h137q13 0 16 -6.5t0 -15.5l-10 -52q-3 -20 -25 -20h-399q-21 0 -18 20zM389 1556q0 6 8 11l240 211q6 6 12 6q8 0 23 -15 l49 -61q4 -8 4 -12q0 -12 -10 -19l-271 -172q-8 -4 -12 -4q-7 0 -14 10l-23 33q-6 6 -6 12z" />
<glyph unicode="&#xce;" horiz-adv-x="724" d="M23 20l8 54q3 20 26 20h127l215 1223h-135q-13 0 -16.5 5t-1.5 17l10 52q3 20 25 20h407q24 0 21 -20l-9 -50q-3 -24 -26 -24h-137l-215 -1223h137q13 0 16 -6.5t0 -15.5l-10 -52q-3 -20 -25 -20h-399q-21 0 -18 20zM260 1536q0 12 10 20l236 216q10 10 29 10h28 q15 0 23 -10l157 -211q9 -14 9 -17q0 -4 -4 -8l-33 -27q-4 -4 -10 -4q-8 0 -19 11l-158 151l-217 -162q-9 -6 -14 -6q-6 0 -10 4l-23 23q-4 4 -4 10z" />
<glyph unicode="&#xcf;" horiz-adv-x="724" d="M23 20l8 54q3 20 26 20h127l215 1223h-135q-13 0 -16.5 5t-1.5 17l10 52q3 20 25 20h407q24 0 21 -20l-9 -50q-3 -24 -26 -24h-137l-215 -1223h137q13 0 16 -6.5t0 -15.5l-10 -52q-3 -20 -25 -20h-399q-21 0 -18 20zM264 1604q0 41 30.5 68.5t72.5 27.5q30 0 50.5 -17 t20.5 -47q0 -40 -30 -71t-70 -31q-30 0 -52 20t-22 50zM598 1604q0 42 30.5 69t71.5 27q30 0 50 -17t20 -47q0 -40 -29.5 -71t-68.5 -31q-30 0 -52 20t-22 50z" />
<glyph unicode="&#xd0;" horiz-adv-x="1323" d="M4 709l14 59q2 14 27 14h137l105 590q5 24 12.5 31.5t32.5 7.5h246q193 0 300 -21.5t185 -80.5q84 -62 128 -170t44 -252q0 -217 -78 -415.5t-233 -324.5q-186 -147 -506 -147h-332q-43 0 -33 53l113 635h-135q-18 0 -24 5t-3 16zM205 117h182q144 0 238.5 18t173.5 74 q94 66 160 180t95 234.5t29 242.5q0 222 -106 328q-59 59 -150 79.5t-215 20.5h-200l-90 -512h247q24 0 17 -24l-13 -51q-5 -19 -28 -19h-240z" />
<glyph unicode="&#xd1;" horiz-adv-x="1378" d="M51 29l240 1353q3 29 33 29h67q21 0 35 -22l565 -1135h4l199 1128q1 13 10 21t21 8h84q22 0 18 -29l-240 -1351q-7 -31 -30 -31h-68q-25 0 -41 31l-563 1132h-2l-199 -1132q-7 -31 -34 -31h-74q-16 0 -22 6t-3 23zM537 1593q0 13 18 25q46 31 104 55.5t95 24.5 q34 0 70 -23t69.5 -46t60.5 -23q29 0 73.5 24.5t80.5 52.5l10 5q12 0 21 -15l18 -28q6 -9 6 -17q0 -6 -14 -20q-126 -103 -213 -103q-31 0 -64.5 23t-67.5 46t-67 23q-47 0 -153 -65q-8 -4 -11 -4q-10 0 -16 14l-16 37q-4 8 -4 14z" />
<glyph unicode="&#xd2;" horiz-adv-x="1316" d="M78 485q0 188 62.5 380.5t178.5 332.5q92 110 214 173t266 63q114 0 200 -39t137.5 -109.5t77 -161.5t25.5 -202q0 -105 -20.5 -213.5t-59.5 -214.5t-101 -198.5t-139.5 -163t-181 -111.5t-219.5 -41q-113 0 -198.5 37.5t-137.5 106t-78 159t-26 202.5zM229 498 q0 -84 16.5 -154t51.5 -127t97.5 -89t146.5 -32q92 0 172.5 38.5t138.5 104t104.5 148.5t74 176t42 183t14.5 172q0 68 -9.5 125.5t-32.5 108.5t-57.5 86.5t-88 56t-121.5 20.5q-108 0 -201 -55t-155.5 -142t-107 -196.5t-65 -217.5t-20.5 -206zM647 1696q0 8 4 12l49 61 q11 15 23 15q6 0 12 -6l240 -211q6 -6 6 -11q0 -8 -4 -12l-23 -33q-7 -10 -16 -10q-2 0 -10 4l-271 172q-10 5 -10 19z" />
<glyph unicode="&#xd3;" horiz-adv-x="1316" d="M78 485q0 188 62.5 380.5t178.5 332.5q92 110 214 173t266 63q114 0 200 -39t137.5 -109.5t77 -161.5t25.5 -202q0 -105 -20.5 -213.5t-59.5 -214.5t-101 -198.5t-139.5 -163t-181 -111.5t-219.5 -41q-113 0 -198.5 37.5t-137.5 106t-78 159t-26 202.5zM229 498 q0 -84 16.5 -154t51.5 -127t97.5 -89t146.5 -32q92 0 172.5 38.5t138.5 104t104.5 148.5t74 176t42 183t14.5 172q0 68 -9.5 125.5t-32.5 108.5t-57.5 86.5t-88 56t-121.5 20.5q-108 0 -201 -55t-155.5 -142t-107 -196.5t-65 -217.5t-20.5 -206zM737 1556q0 6 8 11l240 211 q6 6 12 6q8 0 23 -15l49 -61q4 -8 4 -12q0 -12 -10 -19l-270 -172q-8 -4 -13 -4q-7 0 -14 10l-23 33q-6 6 -6 12z" />
<glyph unicode="&#xd4;" horiz-adv-x="1316" d="M78 485q0 188 62.5 380.5t178.5 332.5q92 110 214 173t266 63q114 0 200 -39t137.5 -109.5t77 -161.5t25.5 -202q0 -105 -20.5 -213.5t-59.5 -214.5t-101 -198.5t-139.5 -163t-181 -111.5t-219.5 -41q-113 0 -198.5 37.5t-137.5 106t-78 159t-26 202.5zM229 498 q0 -84 16.5 -154t51.5 -127t97.5 -89t146.5 -32q92 0 172.5 38.5t138.5 104t104.5 148.5t74 176t42 183t14.5 172q0 68 -9.5 125.5t-32.5 108.5t-57.5 86.5t-88 56t-121.5 20.5q-108 0 -201 -55t-155.5 -142t-107 -196.5t-65 -217.5t-20.5 -206zM555 1536q0 12 10 20 l236 216q10 10 28 10h29q15 0 23 -10l157 -211q9 -14 9 -17t-5 -8l-32 -27q-4 -4 -11 -4t-18 11l-158 151l-217 -162q-9 -6 -14 -6q-6 0 -10 4l-23 23q-4 4 -4 10z" />
<glyph unicode="&#xd5;" horiz-adv-x="1316" d="M78 485q0 188 62.5 380.5t178.5 332.5q92 110 214 173t266 63q114 0 200 -39t137.5 -109.5t77 -161.5t25.5 -202q0 -105 -20.5 -213.5t-59.5 -214.5t-101 -198.5t-139.5 -163t-181 -111.5t-219.5 -41q-113 0 -198.5 37.5t-137.5 106t-78 159t-26 202.5zM229 498 q0 -84 16.5 -154t51.5 -127t97.5 -89t146.5 -32q92 0 172.5 38.5t138.5 104t104.5 148.5t74 176t42 183t14.5 172q0 68 -9.5 125.5t-32.5 108.5t-57.5 86.5t-88 56t-121.5 20.5q-108 0 -201 -55t-155.5 -142t-107 -196.5t-65 -217.5t-20.5 -206zM586 1593q0 13 18 25 q46 31 104 55.5t95 24.5q34 0 70.5 -23t70 -46t60.5 -23q55 0 153 77l10 5q12 0 21 -15l18 -28q6 -9 6 -17q0 -6 -14 -20q-126 -103 -213 -103q-37 0 -98 46t-101 46q-47 0 -153 -65q-8 -4 -10 -4q-11 0 -17 14l-16 37q-4 8 -4 14z" />
<glyph unicode="&#xd6;" horiz-adv-x="1316" d="M78 485q0 188 62.5 380.5t178.5 332.5q92 110 214 173t266 63q114 0 200 -39t137.5 -109.5t77 -161.5t25.5 -202q0 -105 -20.5 -213.5t-59.5 -214.5t-101 -198.5t-139.5 -163t-181 -111.5t-219.5 -41q-113 0 -198.5 37.5t-137.5 106t-78 159t-26 202.5zM229 498 q0 -84 16.5 -154t51.5 -127t97.5 -89t146.5 -32q92 0 172.5 38.5t138.5 104t104.5 148.5t74 176t42 183t14.5 172q0 68 -9.5 125.5t-32.5 108.5t-57.5 86.5t-88 56t-121.5 20.5q-108 0 -201 -55t-155.5 -142t-107 -196.5t-65 -217.5t-20.5 -206zM582 1604q0 41 30 68.5 t72 27.5q31 0 51.5 -17t20.5 -47q0 -40 -30.5 -71t-70.5 -31q-30 0 -51.5 20t-21.5 50zM915 1604q0 41 31 68.5t72 27.5q30 0 49.5 -17t19.5 -47q0 -40 -29.5 -71t-68.5 -31q-30 0 -52 20t-22 50z" />
<glyph unicode="&#xd7;" horiz-adv-x="1015" d="M172 289q0 1 6 10q1 1 14 15t15 16l227 205l-170 227q-8 11 -8 20v2q4 11 14 19l45 39q12 12 25 12q7 0 16 -12l174 -226l248 222q18 14 23 14q6 0 16 -10l33 -39q6 -8 6 -19q0 -2 -4 -10q-2 -3 -13 -16.5t-14 -14.5l-229 -206l170 -228q8 -11 8 -18v-2q-2 -8 -12 -17 l-51 -45q-8 -8 -19 -8q-10 0 -18 10l-174 228l-248 -224q-15 -12 -23 -12q-11 0 -18 10l-33 41q-6 6 -6 17z" />
<glyph unicode="&#xd8;" horiz-adv-x="1357" d="M47 -29q0 7 12 23l129 162q-82 124 -82 313q0 107 20 217.5t58.5 219t100 203.5t139 168t181 115t220.5 42q196 0 310 -117l122 151q14 17 23 17q4 0 12 -4l35 -25q12 -9 12 -18q0 -5 -8 -17l-139 -172q78 -128 78 -323q0 -127 -28.5 -258t-88 -254.5t-143 -220 t-203.5 -155t-258 -58.5q-191 0 -303 106l-115 -143q-16 -19 -27 -19q-6 0 -18 8l-27 21q-12 9 -12 18zM260 520q0 -141 43 -231l737 917q-79 111 -239 111q-105 0 -196.5 -54t-153 -139.5t-106 -192t-65 -212t-20.5 -199.5zM342 199q80 -103 236 -103q107 0 198 54t152 139 t104.5 193t63.5 214t20 203q0 138 -35 223z" />
<glyph unicode="&#xd9;" horiz-adv-x="1392" d="M131 367q0 82 29 260l133 753q5 31 35 31h78q30 0 22 -41l-127 -729q-29 -171 -29 -242q0 -150 74.5 -225.5t251.5 -75.5q99 0 176.5 31.5t127 80.5t87 124.5t58 147t36.5 165.5l129 737q3 27 29 27h92q16 0 18.5 -12.5t-1.5 -22.5l-136 -764q-58 -321 -217 -477 q-158 -155 -424 -155q-227 0 -334.5 101.5t-107.5 285.5zM657 1696q0 7 5 12l49 61q11 15 22 15q6 0 12 -6l240 -211q6 -6 6 -11q0 -8 -4 -12l-22 -33q-7 -10 -17 -10q-2 0 -10 4l-270 172q-11 5 -11 19z" />
<glyph unicode="&#xda;" horiz-adv-x="1392" d="M131 367q0 82 29 260l133 753q5 31 35 31h78q30 0 22 -41l-127 -729q-29 -171 -29 -242q0 -150 74.5 -225.5t251.5 -75.5q99 0 176.5 31.5t127 80.5t87 124.5t58 147t36.5 165.5l129 737q3 27 29 27h92q16 0 18.5 -12.5t-1.5 -22.5l-136 -764q-58 -321 -217 -477 q-158 -155 -424 -155q-227 0 -334.5 101.5t-107.5 285.5zM705 1556q0 6 8 11l239 211q6 6 13 6t22 -15l49 -61q4 -8 4 -12q0 -12 -10 -19l-270 -172q-8 -4 -12 -4q-8 0 -15 10l-22 33q-6 6 -6 12z" />
<glyph unicode="&#xdb;" horiz-adv-x="1392" d="M131 367q0 82 29 260l133 753q5 31 35 31h78q30 0 22 -41l-127 -729q-29 -171 -29 -242q0 -150 74.5 -225.5t251.5 -75.5q99 0 176.5 31.5t127 80.5t87 124.5t58 147t36.5 165.5l129 737q3 27 29 27h92q16 0 18.5 -12.5t-1.5 -22.5l-136 -764q-58 -321 -217 -477 q-158 -155 -424 -155q-227 0 -334.5 101.5t-107.5 285.5zM584 1536q0 12 10 20l235 216q10 10 29 10h29q15 0 22 -10l158 -211q8 -12 8 -17q0 -4 -4 -8l-33 -27q-4 -4 -10 -4q-7 0 -18 11l-158 151l-217 -162q-9 -6 -14 -6q-7 0 -11 4l-22 23q-4 4 -4 10z" />
<glyph unicode="&#xdc;" horiz-adv-x="1392" d="M131 367q0 82 29 260l133 753q5 31 35 31h78q30 0 22 -41l-127 -729q-29 -171 -29 -242q0 -150 74.5 -225.5t251.5 -75.5q99 0 176.5 31.5t127 80.5t87 124.5t58 147t36.5 165.5l129 737q3 27 29 27h92q16 0 18.5 -12.5t-1.5 -22.5l-136 -764q-58 -321 -217 -477 q-158 -155 -424 -155q-227 0 -334.5 101.5t-107.5 285.5zM582 1604q0 41 30 68.5t72 27.5q31 0 51.5 -17t20.5 -47q0 -40 -30.5 -71t-70.5 -31q-30 0 -51.5 20t-21.5 50zM915 1604q0 41 31 68.5t72 27.5q30 0 49.5 -17t19.5 -47q0 -40 -29.5 -71t-68.5 -31q-30 0 -52 20 t-22 50z" />
<glyph unicode="&#xdd;" horiz-adv-x="1083" d="M184 1378q-5 12 3.5 22.5t23.5 10.5h82q21 0 29.5 -6t13.5 -21l219 -706h2l451 702q11 19 20 25t29 6h76q18 0 18 -12q0 -8 -6 -17l-547 -825l-92 -526q-6 -31 -35 -31h-80q-26 0 -26 18q0 9 2 13l92 520zM528 1556q0 5 9 11l239 211q6 6 12 6q8 0 23 -15l49 -61 q4 -8 4 -12q0 -12 -10 -19l-270 -172q-8 -4 -13 -4q-7 0 -14 10l-22 33q-7 7 -7 12z" />
<glyph unicode="&#xde;" horiz-adv-x="1069" d="M1 10q-4 10 1 23l246 1351q3 27 22 27h84q13 0 19 -6t4 -16l-78 -375q62 69 152.5 109t185.5 40q164 0 244 -97t80 -265q0 -112 -35.5 -217t-100 -188.5t-165 -134t-220.5 -50.5q-84 0 -153.5 36.5t-100.5 102.5l-59 -319q-3 -17 -9 -24t-20 -7h-73q-20 0 -24 10z M211 483q26 -77 82 -122.5t135 -45.5q80 0 146.5 28t112 75.5t76.5 111t45.5 132t14.5 141.5q0 254 -229 254q-74 0 -162 -45.5t-149 -112.5z" />
<glyph unicode="&#xdf;" horiz-adv-x="1118" d="M10 -164l178 1006q36 204 65 302.5t85 170.5q125 158 350 158q148 0 243 -71.5t95 -205.5q0 -138 -84 -255t-215 -150v-3q123 -15 195.5 -97.5t72.5 -203.5q0 -89 -31.5 -176t-86.5 -151q-72 -84 -179.5 -131t-228.5 -47q-74 0 -102 8q-7 1 -11 8.5t-2 13.5l11 49 q3 14 9 18.5t19 4.5q12 0 37 -1t39 -1q168 0 281.5 115t113.5 282q0 63 -25.5 112.5t-68.5 78.5t-93.5 44t-105.5 15h-61q-15 0 -20 5.5t-3 17.5l9 47q3 20 24 20h27q147 0 246.5 107t99.5 254q0 97 -58.5 144.5t-162.5 47.5q-68 0 -122 -23.5t-87.5 -59t-59 -91t-39 -105 t-24.5 -114.5l-203 -1143q-6 -31 -28 -31h-78q-27 0 -21 31z" />
<glyph unicode="&#xe0;" horiz-adv-x="1079" d="M76 365q0 124 48 253.5t134 225.5q70 78 162 123t196 45q178 0 353 -101q19 -11 16 -32l-121 -668q-10 -68 -10 -76q0 -43 33 -43q24 0 76 27q8 4 10 4q14 0 14 -14l2 -46q0 -17 -22 -30q-19 -12 -60 -26.5t-78 -14.5q-94 0 -94 106q0 14 6 68h-4q-52 -77 -143 -131.5 t-205 -54.5q-81 0 -142.5 30t-98 83t-54.5 121.5t-18 150.5zM211 358q0 -127 56 -200.5t155 -73.5q113 0 198 65t134 164l94 523q-85 71 -230 71q-142 0 -249 -119q-74 -83 -116 -202t-42 -228zM479 1348q0 8 4 12l49 61q11 15 23 15q6 0 12 -6l240 -211q6 -6 6 -11 q0 -8 -4 -12l-23 -33q-7 -10 -16 -10q-2 0 -10 4l-271 172q-10 5 -10 19z" />
<glyph unicode="&#xe1;" horiz-adv-x="1079" d="M76 365q0 124 48 253.5t134 225.5q70 78 162 123t196 45q178 0 353 -101q19 -11 16 -32l-121 -668q-10 -68 -10 -76q0 -43 33 -43q24 0 76 27q8 4 10 4q14 0 14 -14l2 -46q0 -17 -22 -30q-19 -12 -60 -26.5t-78 -14.5q-94 0 -94 106q0 14 6 68h-4q-52 -77 -143 -131.5 t-205 -54.5q-81 0 -142.5 30t-98 83t-54.5 121.5t-18 150.5zM211 358q0 -127 56 -200.5t155 -73.5q113 0 198 65t134 164l94 523q-85 71 -230 71q-142 0 -249 -119q-74 -83 -116 -202t-42 -228zM532 1208q0 5 9 11l239 211q6 6 13 6t22 -15l49 -61q4 -8 4 -12q0 -12 -10 -19 l-270 -172q-8 -4 -13 -4q-7 0 -14 10l-22 33q-7 7 -7 12z" />
<glyph unicode="&#xe2;" horiz-adv-x="1079" d="M76 365q0 124 48 253.5t134 225.5q70 78 162 123t196 45q178 0 353 -101q19 -11 16 -32l-121 -668q-10 -68 -10 -76q0 -43 33 -43q24 0 76 27q8 4 10 4q14 0 14 -14l2 -46q0 -17 -22 -30q-19 -12 -60 -26.5t-78 -14.5q-94 0 -94 106q0 14 6 68h-4q-52 -77 -143 -131.5 t-205 -54.5q-81 0 -142.5 30t-98 83t-54.5 121.5t-18 150.5zM211 358q0 -127 56 -200.5t155 -73.5q113 0 198 65t134 164l94 523q-85 71 -230 71q-142 0 -249 -119q-74 -83 -116 -202t-42 -228zM416 1188q0 12 10 20l236 215q11 11 28 11h29q14 0 22 -11l158 -211 q8 -12 8 -16t-4 -8l-33 -27q-4 -4 -10 -4q-8 0 -18 10l-158 152l-217 -162q-9 -6 -14 -6q-7 0 -11 4l-22 23q-4 4 -4 10z" />
<glyph unicode="&#xe3;" horiz-adv-x="1079" d="M76 365q0 124 48 253.5t134 225.5q70 78 162 123t196 45q178 0 353 -101q19 -11 16 -32l-121 -668q-10 -68 -10 -76q0 -43 33 -43q24 0 76 27q8 4 10 4q14 0 14 -14l2 -46q0 -17 -22 -30q-19 -12 -60 -26.5t-78 -14.5q-94 0 -94 106q0 14 6 68h-4q-52 -77 -143 -131.5 t-205 -54.5q-81 0 -142.5 30t-98 83t-54.5 121.5t-18 150.5zM211 358q0 -127 56 -200.5t155 -73.5q113 0 198 65t134 164l94 523q-85 71 -230 71q-142 0 -249 -119q-74 -83 -116 -202t-42 -228zM397 1245q0 12 19 25q46 31 103.5 55.5t94.5 24.5q27 0 56 -14.5t50 -32 t47 -32t48 -14.5q54 0 154 78q8 4 10 4q12 0 20 -14l19 -29q6 -9 6 -16q0 -6 -14 -20q-126 -103 -213 -103q-31 0 -64.5 23t-67.5 46t-67 23q-48 0 -154 -65q-8 -4 -10 -4q-10 0 -16 14l-17 37q-4 8 -4 14z" />
<glyph unicode="&#xe4;" horiz-adv-x="1079" d="M76 365q0 124 48 253.5t134 225.5q70 78 162 123t196 45q178 0 353 -101q19 -11 16 -32l-121 -668q-10 -68 -10 -76q0 -43 33 -43q24 0 76 27q8 4 10 4q14 0 14 -14l2 -46q0 -17 -22 -30q-19 -12 -60 -26.5t-78 -14.5q-94 0 -94 106q0 14 6 68h-4q-52 -77 -143 -131.5 t-205 -54.5q-81 0 -142.5 30t-98 83t-54.5 121.5t-18 150.5zM211 358q0 -127 56 -200.5t155 -73.5q113 0 198 65t134 164l94 523q-85 71 -230 71q-142 0 -249 -119q-74 -83 -116 -202t-42 -228zM432 1255q0 41 30.5 69t72.5 28q30 0 50.5 -17t20.5 -47q0 -40 -30 -71 t-70 -31q-30 0 -52 19.5t-22 49.5zM766 1255q0 42 30.5 69.5t71.5 27.5q30 0 50 -17t20 -47q0 -40 -29.5 -71t-68.5 -31q-30 0 -52 19.5t-22 49.5z" />
<glyph unicode="&#xe5;" horiz-adv-x="1079" d="M76 365q0 124 48 253.5t134 225.5q70 78 162 123t196 45q178 0 353 -101q19 -11 16 -32l-121 -668q-10 -68 -10 -76q0 -43 33 -43q24 0 76 27q8 4 10 4q14 0 14 -14l2 -46q0 -17 -22 -30q-19 -12 -60 -26.5t-78 -14.5q-94 0 -94 106q0 14 6 68h-4q-52 -77 -143 -131.5 t-205 -54.5q-81 0 -142.5 30t-98 83t-54.5 121.5t-18 150.5zM211 358q0 -127 56 -200.5t155 -73.5q113 0 198 65t134 164l94 523q-85 71 -230 71q-142 0 -249 -119q-74 -83 -116 -202t-42 -228zM514 1247q0 77 63.5 137t141.5 60q62 0 101.5 -39t39.5 -100 q0 -78 -61.5 -139.5t-139.5 -61.5q-61 0 -103 41t-42 102zM598 1260q0 -32 21.5 -52t54.5 -20q41 0 72.5 30.5t31.5 71.5q0 32 -20.5 52t-52.5 20q-42 0 -74.5 -30t-32.5 -72z" />
<glyph unicode="&#xe6;" horiz-adv-x="1546" d="M31 199q0 102 57 183.5t152 127.5q147 70 362 70h72l10 59q14 72 14 127q0 67 -28 102q-38 47 -131 47q-125 0 -271 -73q-8 -4 -14 -4q-11 0 -14 12l-13 47v4q0 13 23 27q161 84 321 84q121 0 189 -62q22 -20 35.5 -56t13.5 -71q0 -16 -2 -24q23 46 76 94 q135 119 307 119q143 0 221 -89.5t78 -238.5q0 -49 -12 -123q0 -2 -1.5 -11.5t-2.5 -12.5t-2.5 -11.5t-3.5 -11.5t-4.5 -9.5t-6 -9t-8 -6t-10.5 -5t-13 -1.5h-647q-6 -43 -6 -86q0 -247 184 -297q44 -12 99 -12q124 0 245 41q28 11 31 -14l4 -54q0 -5 -0.5 -9t-1.5 -6 t-4.5 -4.5t-5 -3.5t-7 -3.5t-7.5 -3.5q-121 -51 -297 -51q-235 0 -318 170q-180 -173 -407 -173q-106 0 -181 59.5t-75 162.5zM166 229q0 -72 48 -110.5t116 -38.5q85 0 177 44.5t152 102.5q-14 63 -14 131q0 67 12 131q-51 0 -93 -2.5t-99 -9t-101.5 -22t-87 -39t-70 -61.5 t-36.5 -87q-4 -28 -4 -39zM797 571h557q14 61 14 117q0 99 -50.5 162t-152.5 63q-150 0 -256 -122q-39 -45 -70.5 -106.5t-41.5 -113.5z" />
<glyph unicode="&#xe7;" horiz-adv-x="858" d="M76 367q0 122 41 238t113 206.5t180.5 145.5t234.5 55q131 0 232 -58q14 -8 14 -16q0 -6 -6 -18l-25 -54q-5 -12 -18 -12q-4 0 -29 10q-95 45 -172 45q-84 0 -155 -32t-120.5 -85t-84.5 -123.5t-51.5 -147t-16.5 -154.5q0 -125 66 -205t198 -80q101 0 213 41q24 8 27 8 q11 0 14 -12l8 -49q0 -1 1 -3.5t1 -3.5q0 -14 -28 -26q-132 -57 -264 -57q-26 0 -66 4l-21 -88h23q68 0 112 -27.5t44 -85.5q0 -69 -45 -117q-63 -69 -172 -69q-50 0 -105 20q-21 6 -14 25l10 26q5 16 29 6q50 -16 88 -16q67 0 102 47q21 28 21 64q0 69 -119 69h-27 q-31 0 -24 33q1 4 4 14t4 17l22 94q-239 63 -239 371z" />
<glyph unicode="&#xe8;" horiz-adv-x="983" d="M80 367q0 133 45.5 259.5t132.5 219.5q156 166 373 166q144 0 221.5 -87.5t77.5 -236.5q0 -74 -17 -170q-4 -23 -13 -30t-34 -7h-641q-10 -48 -10 -100q0 -136 67 -217.5t210 -81.5q119 0 237 41q40 13 43 -12l4 -48q2 -18 -26 -30q-126 -53 -291 -53q-187 0 -283 102 t-96 285zM242 571h555q12 40 12 119q0 100 -49 160.5t-150 60.5q-149 0 -256 -120q-73 -81 -112 -220zM434 1348q0 8 4 12l49 61q11 15 23 15q6 0 12 -6l240 -211q6 -6 6 -11q0 -8 -4 -12l-23 -33q-7 -10 -16 -10q-2 0 -10 4l-271 172q-10 5 -10 19z" />
<glyph unicode="&#xe9;" horiz-adv-x="983" d="M80 367q0 133 45.5 259.5t132.5 219.5q156 166 373 166q144 0 221.5 -87.5t77.5 -236.5q0 -74 -17 -170q-4 -23 -13 -30t-34 -7h-641q-10 -48 -10 -100q0 -136 67 -217.5t210 -81.5q119 0 237 41q40 13 43 -12l4 -48q2 -18 -26 -30q-126 -53 -291 -53q-187 0 -283 102 t-96 285zM242 571h555q12 40 12 119q0 100 -49 160.5t-150 60.5q-149 0 -256 -120q-73 -81 -112 -220zM479 1208q0 6 8 11l240 211q6 6 12 6q8 0 23 -15l49 -61q4 -8 4 -12q0 -12 -10 -19l-270 -172q-8 -4 -13 -4q-7 0 -14 10l-23 33q-6 6 -6 12z" />
<glyph unicode="&#xea;" horiz-adv-x="983" d="M80 367q0 133 45.5 259.5t132.5 219.5q156 166 373 166q144 0 221.5 -87.5t77.5 -236.5q0 -74 -17 -170q-4 -23 -13 -30t-34 -7h-641q-10 -48 -10 -100q0 -136 67 -217.5t210 -81.5q119 0 237 41q40 13 43 -12l4 -48q2 -18 -26 -30q-126 -53 -291 -53q-187 0 -283 102 t-96 285zM242 571h555q12 40 12 119q0 100 -49 160.5t-150 60.5q-149 0 -256 -120q-73 -81 -112 -220zM399 1188q0 12 11 20l235 215q11 11 29 11h28q15 0 23 -11l158 -211q8 -12 8 -16t-4 -8l-33 -27q-4 -4 -10 -4q-9 0 -19 10l-157 152l-217 -162q-9 -6 -15 -6t-10 4 l-23 23q-4 4 -4 10z" />
<glyph unicode="&#xeb;" horiz-adv-x="983" d="M80 367q0 133 45.5 259.5t132.5 219.5q156 166 373 166q144 0 221.5 -87.5t77.5 -236.5q0 -74 -17 -170q-4 -23 -13 -30t-34 -7h-641q-10 -48 -10 -100q0 -136 67 -217.5t210 -81.5q119 0 237 41q40 13 43 -12l4 -48q2 -18 -26 -30q-126 -53 -291 -53q-187 0 -283 102 t-96 285zM242 571h555q12 40 12 119q0 100 -49 160.5t-150 60.5q-149 0 -256 -120q-73 -81 -112 -220zM401 1255q0 41 30.5 69t72.5 28q30 0 50.5 -17t20.5 -47q0 -40 -30 -71t-70 -31q-30 0 -52 19.5t-22 49.5zM735 1255q0 42 31 69.5t72 27.5q30 0 49.5 -17t19.5 -47 q0 -40 -29.5 -71t-68.5 -31q-30 0 -52 19.5t-22 49.5z" />
<glyph unicode="&#xec;" horiz-adv-x="464" d="M63 23q0 1 1.5 9t1.5 9l163 922q6 26 31 26h76q23 0 20 -22q0 -1 -1 -7.5t-1 -7.5l-161 -923q-6 -29 -31 -29h-76q-26 0 -23 23zM137 1348q0 8 4 12l49 61q11 15 23 15q6 0 12 -6l240 -211q6 -6 6 -11q0 -8 -4 -12l-23 -33q-7 -10 -16 -10q-2 0 -10 4l-271 172 q-10 5 -10 19z" />
<glyph unicode="&#xed;" horiz-adv-x="464" d="M63 23q0 1 1.5 9t1.5 9l163 922q6 26 31 26h76q23 0 20 -22q0 -1 -1 -7.5t-1 -7.5l-161 -923q-6 -29 -31 -29h-76q-26 0 -23 23zM188 1208q0 5 9 11l239 211q6 6 13 6t22 -15l49 -61q4 -8 4 -12q0 -12 -10 -19l-270 -172q-8 -4 -13 -4q-7 0 -14 10l-22 33q-7 7 -7 12z " />
<glyph unicode="&#xee;" horiz-adv-x="477" d="M45 23q0 1 1 9t1 9l164 922q6 26 31 26h75q24 0 21 -22q0 -1 -1 -7.5t-1 -7.5l-162 -923q-6 -29 -31 -29h-75q-26 0 -23 23zM57 1188q0 12 11 20l235 215q11 11 29 11h28q15 0 23 -11l158 -211q8 -12 8 -16t-4 -8l-33 -27q-4 -4 -10 -4q-9 0 -19 10l-157 152l-217 -162 q-9 -6 -15 -6t-10 4l-23 23q-4 4 -4 10z" />
<glyph unicode="&#xef;" horiz-adv-x="483" d="M45 23q0 1 1 9t1 9l164 922q6 26 31 26h75q24 0 21 -22q0 -1 -1 -7.5t-1 -7.5l-162 -923q-6 -29 -31 -29h-75q-26 0 -23 23zM66 1255q0 41 30 69t72 28q31 0 51.5 -17t20.5 -47q0 -40 -30.5 -71t-70.5 -31q-30 0 -51.5 19.5t-21.5 49.5zM399 1255q0 42 31 69.5t72 27.5 q30 0 49.5 -17t19.5 -47q0 -40 -29.5 -71t-68.5 -31q-30 0 -52 19.5t-22 49.5z" />
<glyph unicode="&#xf0;" horiz-adv-x="1060" d="M35 356q0 142 45.5 274t136.5 228q147 154 363 154q109 0 174 -68q-24 126 -86.5 215.5t-149.5 138.5l-102 -155q-10 -17 -19 -17q-4 0 -12 4l-27 15q-10 7 -10 12q0 2 4 10q72 107 107 160q-126 45 -174 53q-13 3 -13 15q0 2 1 4.5t1 3.5l19 47q5 12 20 12q1 0 5 -1 t6 -1q71 -7 198 -47l94 141q8 13 17 13h4q4 0 8 -2l27 -15q10 -7 10 -10v-2q0 -2 -4 -10l-92 -142q90 -47 159 -125t109.5 -172t61 -194.5t20.5 -204.5q0 -307 -150 -504q-152 -206 -401 -206q-93 0 -162 29t-109.5 81t-59.5 118.5t-19 147.5zM166 367q0 -61 12 -110.5 t38.5 -91t74 -64.5t112.5 -23q138 0 230.5 94t134.5 238q14 47 25 116q6 46 6 95q0 61 -12.5 111t-39 91.5t-74 64.5t-112.5 23q-151 0 -252 -116q-70 -79 -106.5 -195.5t-36.5 -232.5z" />
<glyph unicode="&#xf1;" horiz-adv-x="1073" d="M68 12.5q-2 12.5 2 24.5l163 924q6 28 29 28h74q6 0 10.5 -2t6.5 -3.5t2.5 -7t0.5 -7t-1 -8.5l-1 -7l-14 -82q177 140 371 140q127 0 191.5 -66.5t64.5 -189.5q0 -26 -15 -123l-106 -604q-6 -29 -29 -29h-78q-24 0 -18 39l102 584q13 67 13 116q0 84 -45 123t-136 39 q-76 0 -166 -39t-165 -102l-127 -729q-7 -31 -33 -31h-76q-18 0 -20 12.5zM369 1245q0 13 18 25q46 31 104 55.5t95 24.5q27 0 56 -14.5t49.5 -32t46.5 -32t48 -14.5q54 0 154 78q8 4 10 4q13 0 21 -14l18 -29q6 -9 6 -16q0 -6 -14 -20q-126 -103 -213 -103q-31 0 -64.5 23 t-67.5 46t-67 23q-47 0 -153 -65q-8 -4 -10 -4q-11 0 -17 14l-16 37q-4 8 -4 14z" />
<glyph unicode="&#xf2;" horiz-adv-x="1056" d="M76 360q0 121 37 236t104 208.5t173 150.5t233 57q178 0 268 -103t90 -276q0 -123 -37 -238.5t-104.5 -208.5t-174 -149.5t-235.5 -56.5q-177 0 -265.5 103t-88.5 277zM211 369q0 -289 233 -289q98 0 177.5 51t127 132t72.5 173t25 182q0 130 -56.5 210.5t-181.5 80.5 q-78 0 -144 -33t-112 -87t-78.5 -124.5t-47.5 -145.5t-15 -150zM504 1348q0 8 4 12l49 61q11 15 23 15q6 0 12 -6l239 -211q7 -7 7 -11q0 -8 -4 -12l-23 -33q-7 -10 -16 -10q-3 0 -11 4l-270 172q-10 5 -10 19z" />
<glyph unicode="&#xf3;" horiz-adv-x="1056" d="M76 360q0 121 37 236t104 208.5t173 150.5t233 57q178 0 268 -103t90 -276q0 -123 -37 -238.5t-104.5 -208.5t-174 -149.5t-235.5 -56.5q-177 0 -265.5 103t-88.5 277zM211 369q0 -289 233 -289q98 0 177.5 51t127 132t72.5 173t25 182q0 130 -56.5 210.5t-181.5 80.5 q-78 0 -144 -33t-112 -87t-78.5 -124.5t-47.5 -145.5t-15 -150zM498 1208q0 6 8 11l239 211q6 6 13 6t22 -15l49 -61q5 -10 5 -12q0 -12 -11 -19l-270 -172q-8 -4 -12 -4q-8 0 -15 10l-22 33q-6 6 -6 12z" />
<glyph unicode="&#xf4;" horiz-adv-x="1056" d="M76 360q0 121 37 236t104 208.5t173 150.5t233 57q178 0 268 -103t90 -276q0 -123 -37 -238.5t-104.5 -208.5t-174 -149.5t-235.5 -56.5q-177 0 -265.5 103t-88.5 277zM211 369q0 -289 233 -289q98 0 177.5 51t127 132t72.5 173t25 182q0 130 -56.5 210.5t-181.5 80.5 q-78 0 -144 -33t-112 -87t-78.5 -124.5t-47.5 -145.5t-15 -150zM403 1188q0 12 11 20l235 215q11 11 29 11h29q14 0 22 -11l158 -211q8 -12 8 -16t-4 -8l-33 -27q-4 -4 -10 -4q-9 0 -19 10l-157 152l-217 -162q-9 -6 -15 -6t-10 4l-22 23q-5 5 -5 10z" />
<glyph unicode="&#xf5;" horiz-adv-x="1056" d="M76 360q0 121 37 236t104 208.5t173 150.5t233 57q178 0 268 -103t90 -276q0 -123 -37 -238.5t-104.5 -208.5t-174 -149.5t-235.5 -56.5q-177 0 -265.5 103t-88.5 277zM211 369q0 -289 233 -289q98 0 177.5 51t127 132t72.5 173t25 182q0 130 -56.5 210.5t-181.5 80.5 q-78 0 -144 -33t-112 -87t-78.5 -124.5t-47.5 -145.5t-15 -150zM358 1245q0 12 19 25q46 31 103.5 55.5t94.5 24.5q27 0 56 -14.5t50 -32t47 -32t48 -14.5q54 0 154 78q8 4 10 4q13 0 21 -14l18 -29q6 -9 6 -16q0 -6 -14 -20q-126 -103 -213 -103q-31 0 -64.5 23t-67.5 46 t-67 23q-47 0 -153 -65q-8 -4 -11 -4q-10 0 -16 14l-17 37q-4 8 -4 14z" />
<glyph unicode="&#xf6;" horiz-adv-x="1056" d="M76 360q0 121 37 236t104 208.5t173 150.5t233 57q178 0 268 -103t90 -276q0 -123 -37 -238.5t-104.5 -208.5t-174 -149.5t-235.5 -56.5q-177 0 -265.5 103t-88.5 277zM211 369q0 -289 233 -289q98 0 177.5 51t127 132t72.5 173t25 182q0 130 -56.5 210.5t-181.5 80.5 q-78 0 -144 -33t-112 -87t-78.5 -124.5t-47.5 -145.5t-15 -150zM420 1255q0 41 30 69t72 28q31 0 51.5 -17t20.5 -47q0 -40 -30 -71t-70 -31q-30 0 -52 19.5t-22 49.5zM754 1255q0 42 30.5 69.5t71.5 27.5q30 0 50 -17t20 -47q0 -40 -30 -71t-69 -31q-30 0 -51.5 19.5 t-21.5 49.5z" />
<glyph unicode="&#xf7;" horiz-adv-x="1015" d="M104 506l11 61q3 25 28 25h738q16 0 21.5 -5.5t2.5 -19.5l-10 -59q-6 -29 -33 -29h-737q-24 0 -21 27zM338 150q0 46 36 80t83 34q35 0 57.5 -21.5t22.5 -56.5q0 -46 -33.5 -80t-79.5 -34q-35 0 -60.5 22t-25.5 56zM469 897q0 46 36 79.5t83 33.5q35 0 57.5 -20.5 t22.5 -55.5q0 -45 -34 -82t-79 -37q-35 0 -60.5 23.5t-25.5 58.5z" />
<glyph unicode="&#xf8;" horiz-adv-x="1069" d="M76 -29q0 8 6 17l80 100q-86 99 -86 272q0 121 37 236t104 208.5t173 150.5t233 57q137 0 223 -64l61 76q22 25 33 25l10 -5l29 -20q12 -9 12 -18q0 -8 -6 -17l-80 -98q76 -98 76 -258q0 -123 -37 -238.5t-104.5 -208.5t-174 -149.5t-235.5 -56.5q-127 0 -207 53l-63 -80 q-22 -25 -33 -25q-6 0 -10 4l-29 21q-12 7 -12 18zM211 369q0 -107 35 -176l524 659q-60 57 -162 57q-78 0 -144 -33t-112 -87t-78.5 -124.5t-47.5 -145.5t-15 -150zM297 125q54 -45 147 -45q98 0 177.5 51t127 132t72.5 173t25 182q0 94 -29 162z" />
<glyph unicode="&#xf9;" horiz-adv-x="1058" d="M106 229q0 27 13 111l108 623q6 26 31 26h76q12 0 18 -7.5t4 -18.5l-106 -594q-10 -51 -10 -115q0 -166 178 -166q76 0 162 42t153 101l129 730q6 28 33 28h74q14 0 18 -6.5t2 -19.5l-164 -932q-6 -31 -30 -31h-74q-10 0 -16.5 8t-4.5 17l17 92q-170 -140 -355 -140 q-119 0 -187.5 66.5t-68.5 185.5zM475 1348q0 8 4 12l49 61q11 15 23 15q6 0 12 -6l240 -211q6 -6 6 -11q0 -8 -4 -12l-23 -33q-7 -10 -16 -10q-2 0 -10 4l-271 172q-10 5 -10 19z" />
<glyph unicode="&#xfa;" horiz-adv-x="1058" d="M106 229q0 27 13 111l108 623q6 26 31 26h76q12 0 18 -7.5t4 -18.5l-106 -594q-10 -51 -10 -115q0 -166 178 -166q76 0 162 42t153 101l129 730q6 28 33 28h74q14 0 18 -6.5t2 -19.5l-164 -932q-6 -31 -30 -31h-74q-10 0 -16.5 8t-4.5 17l17 92q-170 -140 -355 -140 q-119 0 -187.5 66.5t-68.5 185.5zM532 1208q0 5 9 11l239 211q6 6 13 6t22 -15l49 -61q4 -8 4 -12q0 -12 -10 -19l-270 -172q-8 -4 -13 -4q-7 0 -14 10l-22 33q-7 7 -7 12z" />
<glyph unicode="&#xfb;" horiz-adv-x="1058" d="M106 229q0 27 13 111l108 623q6 26 31 26h76q12 0 18 -7.5t4 -18.5l-106 -594q-10 -51 -10 -115q0 -166 178 -166q76 0 162 42t153 101l129 730q6 28 33 28h74q14 0 18 -6.5t2 -19.5l-164 -932q-6 -31 -30 -31h-74q-10 0 -16.5 8t-4.5 17l17 92q-170 -140 -355 -140 q-119 0 -187.5 66.5t-68.5 185.5zM416 1188q0 12 10 20l236 215q11 11 28 11h29q14 0 22 -11l158 -211q8 -12 8 -16t-4 -8l-33 -27q-4 -4 -10 -4q-8 0 -18 10l-158 152l-217 -162q-9 -6 -14 -6q-7 0 -11 4l-22 23q-4 4 -4 10z" />
<glyph unicode="&#xfc;" horiz-adv-x="1058" d="M106 229q0 27 13 111l108 623q6 26 31 26h76q12 0 18 -7.5t4 -18.5l-106 -594q-10 -51 -10 -115q0 -166 178 -166q76 0 162 42t153 101l129 730q6 28 33 28h74q14 0 18 -6.5t2 -19.5l-164 -932q-6 -31 -30 -31h-74q-10 0 -16.5 8t-4.5 17l17 92q-170 -140 -355 -140 q-119 0 -187.5 66.5t-68.5 185.5zM414 1255q0 41 30 69t72 28q31 0 51.5 -17t20.5 -47q0 -40 -30.5 -71t-70.5 -31q-30 0 -51.5 19.5t-21.5 49.5zM748 1255q0 42 30.5 69.5t71.5 27.5q30 0 50 -17t20 -47q0 -40 -30 -71t-69 -31q-30 0 -51.5 19.5t-21.5 49.5z" />
<glyph unicode="&#xfd;" horiz-adv-x="940" d="M-127 -408l16 52q5 18 23 18q12 0 35 -3t35 -3q175 0 270 172l82 147l-182 983q-5 14 -1 22.5t21 8.5h90q26 0 29 -24l137 -832l420 830q13 26 43 26h78q16 0 16 -12q0 -6 -4 -14l-578 -1082q-97 -184 -195 -257t-251 -73q-28 0 -72 7q-21 4 -12 34zM492 1208q0 6 8 11 l239 211q6 6 13 6t22 -15l49 -61q4 -8 4 -12q0 -12 -10 -19l-270 -172q-8 -4 -12 -4q-8 0 -15 10l-22 33q-6 6 -6 12z" />
<glyph unicode="&#xfe;" horiz-adv-x="1069" d="M-15 -427q-4 10 1 24l317 1810q3 24 23 27l82 6q10 1 16 -5t6 -14v-4l-98 -555q62 69 152.5 109.5t185.5 40.5q83 0 146 -29.5t101 -82.5t57 -121t19 -150q0 -89 -22.5 -181t-67.5 -176t-107 -150t-147.5 -105.5t-181.5 -39.5q-85 0 -158 37.5t-104 102.5l-90 -516 q-3 -16 -9 -23t-20 -8l-78 -6q-19 -1 -23 9zM229 250q25 -75 85.5 -121.5t140.5 -46.5t147.5 34.5t113.5 90.5t78 128.5t47 147.5t15 148q0 130 -58 202t-171 72q-74 0 -162.5 -45t-149.5 -112z" />
<glyph unicode="&#xff;" horiz-adv-x="940" d="M-127 -408l16 52q5 18 23 18q12 0 35 -3t35 -3q175 0 270 172l82 147l-182 983q-5 14 -1 22.5t21 8.5h90q26 0 29 -24l137 -832l420 830q13 26 43 26h78q16 0 16 -12q0 -6 -4 -14l-578 -1082q-97 -184 -195 -257t-251 -73q-28 0 -72 7q-21 4 -12 34zM340 1255q0 41 30 69 t72 28q31 0 51.5 -17t20.5 -47q0 -40 -30 -71t-70 -31q-30 0 -52 19.5t-22 49.5zM674 1255q0 42 30.5 69.5t71.5 27.5q30 0 50 -17t20 -47q0 -40 -29.5 -71t-68.5 -31q-30 0 -52 19.5t-22 49.5z" />
<glyph unicode="&#x152;" horiz-adv-x="1849" d="M78 485q0 105 20.5 214.5t59.5 216t101 200t139.5 164.5t181 112.5t219.5 41.5q217 0 317 -148l25 109q3 16 26 16h678q28 0 21 -27l-17 -61q-7 -25 -43 -25h-551l-88 -503h490q14 0 19 -5t3 -18l-10 -61q-5 -27 -33 -27h-489l-100 -569h573q25 0 22 -25l-12 -65 q-6 -25 -31 -25h-677q-34 0 -27 35l14 92q-84 -72 -192 -109.5t-207 -37.5q-212 0 -322 130t-110 375zM233 502q0 -192 79.5 -298t234.5 -106q99 0 204 41.5t183 116.5l158 895q-44 74 -120.5 120t-183.5 46q-92 0 -173 -38t-140.5 -102.5t-106.5 -147t-76 -174.5 t-44 -181.5t-15 -171.5z" />
<glyph unicode="&#x153;" horiz-adv-x="1724" d="M78 340q0 98 21 193.5t66 182t108.5 152.5t154 105t197.5 39q267 0 323 -240q72 112 181.5 176t238.5 64q143 0 222 -90.5t79 -233.5q0 -39 -8.5 -97.5t-20.5 -86.5q-10 -21 -38 -21h-644q-8 -50 -8 -96q0 -65 15.5 -119t47.5 -96.5t87 -66t129 -23.5q126 0 246 45 q27 10 30 -12l8 -52q2 -18 -26 -30q-126 -53 -295 -53q-143 0 -229.5 62.5t-116.5 178.5q-70 -111 -175.5 -176t-240.5 -65q-178 0 -265 99.5t-87 260.5zM209 369q0 -130 56.5 -210.5t183.5 -80.5q87 0 158 40t117 107.5t74 143.5t40 159q6 46 6 95q0 127 -56 207.5 t-180 80.5q-99 0 -178 -51.5t-125.5 -133t-71 -174t-24.5 -183.5zM977 571h555q14 75 14 123q0 96 -51.5 157.5t-151.5 61.5q-147 0 -253 -122q-72 -84 -113 -220z" />
<glyph unicode="&#x178;" horiz-adv-x="1083" d="M184 1378q-5 12 3.5 22.5t23.5 10.5h82q21 0 29.5 -6t13.5 -21l219 -706h2l451 702q11 19 20 25t29 6h76q18 0 18 -12q0 -8 -6 -17l-547 -825l-92 -526q-6 -31 -35 -31h-80q-26 0 -26 18q0 9 2 13l92 520zM446 1604q0 41 30.5 68.5t72.5 27.5q31 0 51.5 -17t20.5 -47 q0 -40 -30.5 -71t-70.5 -31q-30 0 -52 20t-22 50zM780 1604q0 41 31 68.5t72 27.5q30 0 49.5 -17t19.5 -47q0 -40 -29.5 -71t-68.5 -31q-30 0 -52 20t-22 50z" />
<glyph unicode="&#x2c6;" horiz-adv-x="638" d="M59 1188q0 12 11 20l235 215q11 11 29 11h28q15 0 23 -11l158 -211q8 -12 8 -16t-4 -8l-33 -27q-4 -4 -10 -4q-9 0 -19 10l-157 152l-217 -162q-9 -6 -15 -6t-10 4l-23 23q-4 4 -4 10z" />
<glyph unicode="&#x2dc;" horiz-adv-x="638" d="M10 1245q0 12 19 25q46 31 103.5 55.5t94.5 24.5q27 0 56 -14.5t50 -32t47 -32t48 -14.5q54 0 154 78q8 4 10 4q12 0 20 -14l19 -29q6 -9 6 -16q0 -6 -14 -20q-126 -103 -213 -103q-31 0 -64.5 23t-67.5 46t-67 23q-48 0 -154 -65q-8 -4 -10 -4q-10 0 -16 14l-17 37 q-4 8 -4 14z" />
<glyph unicode="&#x2000;" horiz-adv-x="926" />
<glyph unicode="&#x2001;" horiz-adv-x="1853" />
<glyph unicode="&#x2002;" horiz-adv-x="926" />
<glyph unicode="&#x2003;" horiz-adv-x="1853" />
<glyph unicode="&#x2004;" horiz-adv-x="617" />
<glyph unicode="&#x2005;" horiz-adv-x="463" />
<glyph unicode="&#x2006;" horiz-adv-x="308" />
<glyph unicode="&#x2007;" horiz-adv-x="308" />
<glyph unicode="&#x2008;" horiz-adv-x="231" />
<glyph unicode="&#x2009;" horiz-adv-x="370" />
<glyph unicode="&#x200a;" horiz-adv-x="102" />
<glyph unicode="&#x2010;" horiz-adv-x="557" d="M98 494v6l13 69q6 27 32 27h283q33 0 33 -21v-6l-10 -67q-3 -16 -11.5 -21.5t-25.5 -5.5h-287q-27 0 -27 19z" />
<glyph unicode="&#x2011;" horiz-adv-x="557" d="M98 494v6l13 69q6 27 32 27h283q33 0 33 -21v-6l-10 -67q-3 -16 -11.5 -21.5t-25.5 -5.5h-287q-27 0 -27 19z" />
<glyph unicode="&#x2012;" horiz-adv-x="557" d="M98 494v6l13 69q6 27 32 27h283q33 0 33 -21v-6l-10 -67q-3 -16 -11.5 -21.5t-25.5 -5.5h-287q-27 0 -27 19z" />
<glyph unicode="&#x2013;" horiz-adv-x="1024" d="M-6 504l12 67q6 25 29 25h971q16 0 21.5 -5.5t2.5 -19.5l-12 -65q-6 -27 -31 -27h-973q-26 0 -20 25z" />
<glyph unicode="&#x2014;" horiz-adv-x="2048" d="M-6 504l12 67q6 25 29 25h1995q16 0 21.5 -5.5t2.5 -19.5l-12 -65q-6 -27 -31 -27h-1997q-26 0 -20 25z" />
<glyph unicode="&#x2018;" horiz-adv-x="638" d="M334 1098q0 74 53 164q56 95 156 168q13 10 22 10q8 0 13 -8l10 -17q2 -2 2 -10t-12 -16q-36 -30 -68.5 -77.5t-32.5 -84.5q0 -26 23.5 -65.5t23.5 -61.5q0 -44 -29.5 -72.5t-70.5 -28.5q-37 0 -63.5 28.5t-26.5 70.5z" />
<glyph unicode="&#x2019;" horiz-adv-x="638" d="M213 1024q0 8 12 16q36 30 68.5 77.5t32.5 84.5q0 26 -23.5 65.5t-23.5 61.5q0 44 29.5 72.5t70.5 28.5q37 0 63.5 -28.5t26.5 -70.5q0 -74 -53 -164q-56 -95 -156 -168q-13 -10 -22 -10q-8 0 -13 8l-10 17q-2 2 -2 10z" />
<glyph unicode="&#x201a;" horiz-adv-x="403" d="M80 -217q0 8 12 16q36 30 68.5 77.5t32.5 84.5q0 26 -24 65.5t-24 61.5q0 44 30 72t71 28q37 0 63.5 -28t26.5 -70q0 -74 -53 -164q-56 -95 -156 -168q-13 -10 -23 -10q-7 0 -12 8l-10 17q-2 2 -2 10z" />
<glyph unicode="&#x201c;" horiz-adv-x="700" d="M150 1098q0 74 53 164q57 97 155 168q13 10 23 10q7 0 12 -8l10 -17q3 -3 3 -10t-13 -16q-35 -30 -67.5 -77.5t-32.5 -84.5q0 -26 23.5 -65.5t23.5 -61.5q0 -44 -29.5 -72.5t-70.5 -28.5q-37 0 -63.5 28.5t-26.5 70.5zM465 1098q0 74 53 164q56 95 156 168q13 10 22 10 q8 0 13 -8l10 -17q2 -2 2 -10t-12 -16q-36 -30 -68.5 -77.5t-32.5 -84.5q0 -26 23.5 -65.5t23.5 -61.5q0 -44 -29.5 -72.5t-70.5 -28.5q-37 0 -63.5 28.5t-26.5 70.5z" />
<glyph unicode="&#x201d;" horiz-adv-x="700" d="M137 1024q0 7 13 16q35 30 67.5 77.5t32.5 84.5q0 26 -23.5 65.5t-23.5 61.5q0 44 29.5 72.5t70.5 28.5q37 0 63.5 -28.5t26.5 -70.5q0 -74 -53 -164q-56 -95 -156 -168q-13 -10 -22 -10q-7 0 -12 8l-11 17q-2 2 -2 10zM453 1024q0 8 12 16q35 30 67.5 77.5t32.5 84.5 q0 26 -23.5 65.5t-23.5 61.5q0 44 29.5 72.5t70.5 28.5q37 0 64 -28.5t27 -70.5q0 -73 -54 -164q-57 -97 -155 -168q-13 -10 -23 -10q-7 0 -12 8l-10 17q-2 2 -2 10z" />
<glyph unicode="&#x201e;" horiz-adv-x="700" d="M76 -227q0 8 12 16q35 30 67.5 77.5t32.5 84.5q0 26 -23.5 65.5t-23.5 61.5q0 44 30 72t71 28q37 0 63.5 -28t26.5 -70q0 -74 -53 -164q-56 -95 -156 -168q-13 -10 -23 -10q-7 0 -12 8l-10 16q-2 2 -2 11zM391 -227q0 8 12 16q36 30 68.5 77.5t32.5 84.5q0 26 -23.5 65.5 t-23.5 61.5q0 44 29.5 72t70.5 28q37 0 63.5 -28t26.5 -70q0 -74 -53 -164q-56 -95 -156 -168q-13 -10 -22 -10q-8 0 -13 8l-10 16q-2 2 -2 11z" />
<glyph unicode="&#x2022;" horiz-adv-x="954" d="M152 489q0 149 117 265t266 116q115 0 190.5 -75t75.5 -191q0 -149 -115 -265t-264 -116q-116 0 -193 75.5t-77 190.5z" />
<glyph unicode="&#x2026;" horiz-adv-x="2023" d="M264 51q0 46 36 79.5t83 33.5q35 0 57.5 -20.5t22.5 -55.5q0 -45 -35 -80t-80 -35q-35 0 -59.5 22t-24.5 56zM889 51q0 47 35.5 80t81.5 33q35 0 58 -21t23 -55q0 -45 -34.5 -80t-79.5 -35q-35 0 -59.5 22t-24.5 56zM1518 51q0 47 35 80t81 33q35 0 57.5 -20.5 t22.5 -55.5q0 -45 -35 -80t-80 -35q-34 0 -57.5 21.5t-23.5 56.5z" />
<glyph unicode="&#x202f;" horiz-adv-x="370" />
<glyph unicode="&#x2039;" horiz-adv-x="585" d="M154 459q0 20 20 43l262 293q14 14 21 14q2 0 10 -4l29 -19q8 -5 8 -16q0 -8 -4 -12l-219 -289l112 -299q2 -4 2 -10q0 -14 -14 -21l-31 -18q-6 -4 -14 -4q-13 0 -19 14l-153 293q-10 20 -10 35z" />
<glyph unicode="&#x203a;" horiz-adv-x="585" d="M84 154q0 8 4 12l219 289l-112 299q-2 4 -2 10q0 13 14 20l31 19q9 6 14 6q12 0 18 -16l154 -293q10 -20 10 -35q0 -20 -20 -43l-262 -293q-12 -12 -21 -12q-6 0 -10 2l-29 18q-8 5 -8 17z" />
<glyph unicode="&#x205f;" horiz-adv-x="463" />
<glyph unicode="&#x20ac;" horiz-adv-x="1155" d="M-68 532l7 33q3 13 8 17t18 4h119q7 78 20 141h-116q-20 0 -17 21l6 32q3 14 7.5 18.5t17.5 4.5h121q29 104 70 194.5t101 171.5t133 139t169 92t205 34q202 0 336 -88q12 -9 12 -17q0 -4 -4 -12l-41 -70q-9 -14 -17 -14q-1 0 -3 1t-3 1q-4 1 -20 12q-119 70 -266 70 q-370 0 -521 -514h557q15 0 20 -7.5t-1 -17.5l-16 -30q-10 -21 -37 -21h-541q-13 -78 -16 -141h530q31 0 18 -23l-16 -31q-13 -22 -37 -22h-497q3 -74 13.5 -131.5t34 -112.5t59.5 -91t94.5 -57.5t135.5 -21.5q139 0 302 68q14 7 26 10q1 0 4 1t4 1q12 0 15 -16l14 -64v-6 q0 -17 -27 -29q-178 -81 -376 -81q-452 0 -455 530h-131q-13 0 -17 5t-2 17z" />
<glyph unicode="&#x2122;" horiz-adv-x="1335" d="M106 1356l9 41q3 14 16 14h490q18 0 12 -14l-12 -41q-5 -13 -23 -13h-195l-100 -569q-3 -14 -20 -14h-52q-17 0 -14 14l100 569h-198q-16 0 -13 13zM530 774l134 617q3 20 20 20h37q17 0 20 -16l127 -527h4l306 531q6 12 20 12h45q15 0 12 -14l-81 -621q-2 -16 -19 -16 h-49q-15 0 -12 20l65 461h-2l-268 -469q-6 -12 -17 -12h-36q-14 0 -17 12l-112 469h-2l-99 -467q-3 -14 -14 -14h-51q-6 0 -9.5 4.5t-1.5 9.5z" />
<glyph unicode="&#xe000;" horiz-adv-x="993" d="M0 0v993h993v-993h-993z" />
</font>
</defs>
</svg>
